<svg viewBox="0 0 330 200" xmlns="http://www.w3.org/2000/svg"><g><g><g><g><g><line x1="40" y1="177" x2="35" y2="177" style="visibility: inherit;" fill="rgb(0, 0, 0)" stroke="rgb(204, 204, 204)" stroke-width="1px"></line><line x1="40" y1="160.9090909090909" x2="35" y2="160.9090909090909" style="visibility: inherit;" fill="rgb(0, 0, 0)" stroke="rgb(204, 204, 204)" stroke-width="1px"></line><line x1="40" y1="144.8181818181818" x2="35" y2="144.8181818181818" style="visibility: inherit;" fill="rgb(0, 0, 0)" stroke="rgb(204, 204, 204)" stroke-width="1px"></line><line x1="40" y1="128.72727272727272" x2="35" y2="128.72727272727272" style="visibility: inherit;" fill="rgb(0, 0, 0)" stroke="rgb(204, 204, 204)" stroke-width="1px"></line><line x1="40" y1="112.63636363636364" x2="35" y2="112.63636363636364" style="visibility: inherit;" fill="rgb(0, 0, 0)" stroke="rgb(204, 204, 204)" stroke-width="1px"></line><line x1="40" y1="96.54545454545453" x2="35" y2="96.54545454545453" style="visibility: inherit;" fill="rgb(0, 0, 0)" stroke="rgb(204, 204, 204)" stroke-width="1px"></line><line x1="40" y1="80.45454545454547" x2="35" y2="80.45454545454547" style="visibility: inherit;" fill="rgb(0, 0, 0)" stroke="rgb(204, 204, 204)" stroke-width="1px"></line><line x1="40" y1="64.36363636363636" x2="35" y2="64.36363636363636" style="visibility: inherit;" fill="rgb(0, 0, 0)" stroke="rgb(204, 204, 204)" stroke-width="1px"></line><line x1="40" y1="48.272727272727266" x2="35" y2="48.272727272727266" style="visibility: inherit;" fill="rgb(0, 0, 0)" stroke="rgb(204, 204, 204)" stroke-width="1px"></line><line x1="40" y1="32.18181818181817" x2="35" y2="32.18181818181817" style="visibility: inherit;" fill="rgb(0, 0, 0)" stroke="rgb(204, 204, 204)" stroke-width="1px"></line><line x1="40" y1="16.090909090909097" x2="35" y2="16.090909090909097" style="visibility: inherit;" fill="rgb(0, 0, 0)" stroke="rgb(204, 204, 204)" stroke-width="1px"></line><line x1="40" y1="0" x2="35" y2="0" style="visibility: inherit;" fill="rgb(0, 0, 0)" stroke="rgb(204, 204, 204)" stroke-width="1px"></line></g><g transform="translate(30, 0)"><text x="0" y="177" dx="0em" dy="0.3em" style="text-anchor: end; visibility: hidden; font-family: Roboto, sans-serif; font-size: 12px; font-weight: 200;" fill="rgb(33, 33, 33)" stroke="none" stroke-width="1px">0</text><text x="0" y="160.9090909090909" dx="0em" dy="0.3em" style="text-anchor: end; visibility: inherit; font-family: Roboto, sans-serif; font-size: 12px; font-weight: 200;" fill="rgb(33, 33, 33)" stroke="none" stroke-width="1px">0.5</text><text x="0" y="144.8181818181818" dx="0em" dy="0.3em" style="text-anchor: end; visibility: hidden; font-family: Roboto, sans-serif; font-size: 12px; font-weight: 200;" fill="rgb(33, 33, 33)" stroke="none" stroke-width="1px">1</text><text x="0" y="128.72727272727272" dx="0em" dy="0.3em" style="text-anchor: end; visibility: inherit; font-family: Roboto, sans-serif; font-size: 12px; font-weight: 200;" fill="rgb(33, 33, 33)" stroke="none" stroke-width="1px">1.5</text><text x="0" y="112.63636363636364" dx="0em" dy="0.3em" style="text-anchor: end; visibility: hidden; font-family: Roboto, sans-serif; font-size: 12px; font-weight: 200;" fill="rgb(33, 33, 33)" stroke="none" stroke-width="1px">2</text><text x="0" y="96.54545454545453" dx="0em" dy="0.3em" style="text-anchor: end; visibility: inherit; font-family: Roboto, sans-serif; font-size: 12px; font-weight: 200;" fill="rgb(33, 33, 33)" stroke="none" stroke-width="1px">2.5</text><text x="0" y="80.45454545454547" dx="0em" dy="0.3em" style="text-anchor: end; visibility: hidden; font-family: Roboto, sans-serif; font-size: 12px; font-weight: 200;" fill="rgb(33, 33, 33)" stroke="none" stroke-width="1px">3</text><text x="0" y="64.36363636363636" dx="0em" dy="0.3em" style="text-anchor: end; visibility: inherit; font-family: Roboto, sans-serif; font-size: 12px; font-weight: 200;" fill="rgb(33, 33, 33)" stroke="none" stroke-width="1px">3.5</text><text x="0" y="48.272727272727266" dx="0em" dy="0.3em" style="text-anchor: end; visibility: hidden; font-family: Roboto, sans-serif; font-size: 12px; font-weight: 200;" fill="rgb(33, 33, 33)" stroke="none" stroke-width="1px">4</text><text x="0" y="32.18181818181817" dx="0em" dy="0.3em" style="text-anchor: end; visibility: inherit; font-family: Roboto, sans-serif; font-size: 12px; font-weight: 200;" fill="rgb(33, 33, 33)" stroke="none" stroke-width="1px">4.5</text><text x="0" y="16.090909090909097" dx="0em" dy="0.3em" style="text-anchor: end; visibility: hidden; font-family: Roboto, sans-serif; font-size: 12px; font-weight: 200;" fill="rgb(33, 33, 33)" stroke="none" stroke-width="1px">5</text><text x="0" y="0" dx="0em" dy="0.3em" style="text-anchor: end; visibility: hidden; font-family: Roboto, sans-serif; font-size: 12px; font-weight: 200;" fill="rgb(33, 33, 33)" stroke="none" stroke-width="1px">5.5</text></g><line x1="40" y1="0" x2="40" y2="177" fill="rgb(0, 0, 0)" stroke="rgb(204, 204, 204)" stroke-width="1px"></line></g></g><g transform="translate(40, 0)" clip-path="url(#clip_0)"><clipPath id="clip_0"><rect width="290" height="177"></rect></clipPath><g><g><g><line x1="0" y1="0" x2="0" y2="177" fill="rgb(0, 0, 0)" stroke="rgb(66, 66, 66)" stroke-width="1px" opacity="0.25"></line><line x1="36.25" y1="0" x2="36.25" y2="177" fill="rgb(0, 0, 0)" stroke="rgb(66, 66, 66)" stroke-width="1px" opacity="0.25"></line><line x1="72.5" y1="0" x2="72.5" y2="177" fill="rgb(0, 0, 0)" stroke="rgb(66, 66, 66)" stroke-width="1px" opacity="0.25"></line><line x1="108.75" y1="0" x2="108.75" y2="177" fill="rgb(0, 0, 0)" stroke="rgb(66, 66, 66)" stroke-width="1px" opacity="0.25"></line><line x1="145" y1="0" x2="145" y2="177" fill="rgb(0, 0, 0)" stroke="rgb(66, 66, 66)" stroke-width="1px" opacity="0.25"></line><line x1="181.25" y1="0" x2="181.25" y2="177" fill="rgb(0, 0, 0)" stroke="rgb(66, 66, 66)" stroke-width="1px" opacity="0.25"></line><line x1="217.5" y1="0" x2="217.5" y2="177" fill="rgb(0, 0, 0)" stroke="rgb(66, 66, 66)" stroke-width="1px" opacity="0.25"></line><line x1="253.75" y1="0" x2="253.75" y2="177" fill="rgb(0, 0, 0)" stroke="rgb(66, 66, 66)" stroke-width="1px" opacity="0.25"></line><line x1="290" y1="0" x2="290" y2="177" fill="rgb(0, 0, 0)" stroke="rgb(66, 66, 66)" stroke-width="1px" opacity="0.25"></line></g><g><line x1="0" y1="177" x2="290" y2="177" fill="rgb(0, 0, 0)" stroke="rgb(66, 66, 66)" stroke-width="1px" opacity="0.25"></line><line x1="0" y1="160.9090909090909" x2="290" y2="160.9090909090909" fill="rgb(0, 0, 0)" stroke="rgb(66, 66, 66)" stroke-width="1px" opacity="0.25"></line><line x1="0" y1="144.8181818181818" x2="290" y2="144.8181818181818" fill="rgb(0, 0, 0)" stroke="rgb(66, 66, 66)" stroke-width="1px" opacity="0.25"></line><line x1="0" y1="128.72727272727272" x2="290" y2="128.72727272727272" fill="rgb(0, 0, 0)" stroke="rgb(66, 66, 66)" stroke-width="1px" opacity="0.25"></line><line x1="0" y1="112.63636363636364" x2="290" y2="112.63636363636364" fill="rgb(0, 0, 0)" stroke="rgb(66, 66, 66)" stroke-width="1px" opacity="0.25"></line><line x1="0" y1="96.54545454545453" x2="290" y2="96.54545454545453" fill="rgb(0, 0, 0)" stroke="rgb(66, 66, 66)" stroke-width="1px" opacity="0.25"></line><line x1="0" y1="80.45454545454547" x2="290" y2="80.45454545454547" fill="rgb(0, 0, 0)" stroke="rgb(66, 66, 66)" stroke-width="1px" opacity="0.25"></line><line x1="0" y1="64.36363636363636" x2="290" y2="64.36363636363636" fill="rgb(0, 0, 0)" stroke="rgb(66, 66, 66)" stroke-width="1px" opacity="0.25"></line><line x1="0" y1="48.272727272727266" x2="290" y2="48.272727272727266" fill="rgb(0, 0, 0)" stroke="rgb(66, 66, 66)" stroke-width="1px" opacity="0.25"></line><line x1="0" y1="32.18181818181817" x2="290" y2="32.18181818181817" fill="rgb(0, 0, 0)" stroke="rgb(66, 66, 66)" stroke-width="1px" opacity="0.25"></line><line x1="0" y1="16.090909090909097" x2="290" y2="16.090909090909097" fill="rgb(0, 0, 0)" stroke="rgb(66, 66, 66)" stroke-width="1px" opacity="0.25"></line><line x1="0" y1="0" x2="290" y2="0" fill="rgb(0, 0, 0)" stroke="rgb(66, 66, 66)" stroke-width="1px" opacity="0.25"></line></g></g></g><g><g><line x1="0" y1="177" x2="290" y2="177" fill="rgb(0, 0, 0)" stroke="rgb(153, 153, 153)" stroke-width="1.5px"></line></g></g><g><g><line x1="36.25" y1="0" x2="36.25" y2="177" fill="rgb(0, 0, 0)" stroke="rgb(153, 153, 153)" stroke-width="1.5px"></line></g></g><g><g><g><g><g><path stroke="rgb(255, 112, 67)" stroke-width="2px" d="M36.25725,22.045264850963243L36.975,94.54922731356189L37.7,122.86975270388078L38.425000000000004,126.71460021115881L39.150000000000006,139.39395201202447L39.875,145.2843764167333L40.6,149.58382405929203L41.324999999999996,151.89824683905368L42.05,153.40185253258906L42.775,154.46319320642164L43.5,155.0846008746905L44.225,155.52000672645303L44.95,155.3207955870491L45.675,155.6452095648612L46.4,155.4040306844141L47.125,155.8130876460687L47.85,155.6110881228832L48.575,156.09557299869437L49.300000000000004,153.2374881203027L50.025,155.0125327739557L50.75,155.87140367282635L51.474999999999994,156.7786768039182L52.199999999999996,147.91640710568117L52.925,151.34189494295322L53.65,153.70977721976314L54.375,155.41597792304964L55.1,156.04429659386557L55.825,156.73056972151403L56.550000000000004,156.86444564321525L57.275000000000006,157.37040211865752L58,149.68135483750905L58.725,152.6709795625032L59.449999999999996,155.1853913800268L60.175,156.1200910863124L60.9,156.75352650466218L61.625,156.89952610632955L62.35,156.77974619017132L63.075,136.47507872682579L63.8,142.58451975076795L64.525,137.68958871554668L65.25,145.5388461278368L65.97500000000001,150.35683791864605L66.7,153.28723048561113L67.425,155.18503706343228L68.14999999999999,156.3975489138432L68.875,157.03927168409896L69.6,157.57875306650013L70.325,157.9240460394179L71.05,158.19143060761456L71.775,158.10114678637228L72.5,158.35152839414567L73.225,156.755653504191L73.95,157.67798445442966L74.675,157.01542430358305L75.4,157.79909094117437L76.125,158.08353994508553L76.85000000000001,151.97348500837907L77.575,151.0759466523745L78.30000000000001,154.0843004117394L79.025,155.02465126855716L79.75,156.26530925218577L80.47500000000001,156.43596698459032L81.2,157.31695632597342L81.925,157.52049722729268L82.64999999999999,156.7211851374884L83.375,157.24810298715056L84.1,155.77649682043585L84.82499999999999,156.69205715768152L85.55,157.14304029921982L86.27499999999999,157.96654264915165L87,158.27016129963502L87.725,158.03243700569433L88.45,157.32161429955806L89.175,157.8645418761951L89.9,158.14840601068522L90.625,152.50610731948484L91.35,155.03126866383974L92.075,156.45073930263513L92.8,157.4819723206433L93.525,157.59846739451666L94.25,142.73244721742455L94.97500000000001,147.2070050919987L95.7,151.49113928369124L96.42500000000001,153.7754763440684L97.15,155.3866428702547L97.875,151.90207361451175L98.60000000000001,154.44294522891545L99.325,155.98692550745398L100.05,140.06861969739452L100.77499999999999,147.21942534339038L101.5,151.97006233237423L102.225,154.35652514193524L102.94999999999999,155.84251024659912L103.675,156.77700115209322L104.39999999999999,157.8044478560689L105.125,158.08353384363235L105.85,158.61068748143768L106.575,158.01040985464076L107.3,158.49883258183937L108.025,158.4593556589655L108.75,158.8322283405309L109.475,158.6033866912706L110.2,158.54840870345947L110.925,158.2780502493265L111.65,155.6059994914635L112.375,152.13245420891343L113.10000000000001,154.8760002838597L113.825,142.7223276282293L114.55000000000001,149.24884071693833L115.275,148.37697435845365L116,152.62823214515973L116.72500000000001,154.41855580060817L117.45,156.2959220273606L118.175,157.18369796111602L118.89999999999999,157.06657806774626L119.625,157.70887150609883L120.35,158.1652143070309L121.07499999999999,158.48029013959547L121.8,158.7026407162535L122.52499999999999,158.37762612994186L123.25,156.65465115192393L123.975,157.52143845640063L124.7,157.75742214512113L125.425,158.19850024825016L126.15,155.8506999913684L126.875,156.89870566206707L127.6,151.8127907269938L128.325,154.64877637132284L129.05,156.31098586805683L129.775,157.24943246807197L130.5,157.113525784027L131.225,157.24951478980486L131.95000000000002,157.46125633530593L132.675,157.88356454000717L133.4,158.01601398375053L134.125,142.75245066569641L134.85,148.53132786585545L135.57500000000002,152.39574090598398L136.29999999999998,153.87657809666186L137.025,155.59042744014766L137.75,156.69511306823122L138.475,157.59551477971354L139.2,158.05769024652213L139.92499999999998,158.05754222110275L140.65,158.24492000991052L141.375,157.86314144676024L142.1,158.20071024265943L142.825,156.28900636989292L143.55,157.17119832003254L144.275,150.5951004433662L145,154.03224592039982L145.725,155.90967840440166L146.45,156.4980783263976L147.17499999999998,157.1288370620201L147.9,157.86741558227155L148.625,158.17442137254656L149.35,158.59774128999885L150.075,158.52016637784368L150.8,158.57902037159064L151.52499999999998,158.5227232811722L152.25,156.86582680841252L152.975,154.4165723276678L153.70000000000002,153.54711333772258L154.42499999999998,154.72791457960165L155.15,156.21068561764235L155.875,157.08725316936776L156.60000000000002,157.53629516458787L157.325,158.14055734756806L158.05,158.33493809738778L158.775,158.13810352262L159.5,158.28085917209364L160.225,157.52475890556386L160.95000000000002,158.19801067625042L161.675,158.49418961809988L162.4,158.74673385288287L163.125,158.79964108874887L163.85,159.04821025226082L164.575,158.7148988549434L165.29999999999998,155.27927163812114L166.025,156.60320482216017L166.75,157.01836624642885L167.475,157.93055002250858L168.2,158.48982056051193L168.925,158.79522900189414L169.64999999999998,158.8982110329433L170.375,127.54461010254296L171.1,140.12613580417937L171.82500000000002,147.46815570035596L172.54999999999998,151.44133464110396L173.275,154.14845171610742L174,155.596142212609L174.72500000000002,156.55403041409662L175.45,155.37427777552566L176.175,107.461562951881L176.9,109.41869082912865L177.625,129.47805345899175L178.35,139.23172120035204L179.07500000000002,146.86738965813987L179.8,151.67670573806296L180.525,154.57990203021376L181.25,156.2804852024547L181.975,157.16885471264962L182.7,157.88796883448953L183.42499999999998,158.05445758097548L184.15,158.44114339759403L184.875,158.88971730173446L185.6,158.56349282108056L186.325,157.97280290076156L187.05,158.3338945182016L187.77499999999998,158.52426266990116L188.5,157.13963462848128L189.225,155.02008551539362L189.95000000000002,156.4710106156063L190.67499999999998,157.69180876298228L191.4,158.23485375594998L192.125,158.34799690933173L192.85000000000002,158.8241924431121L193.575,159.01209226005813L194.3,159.18684096026905L195.025,159.24264907391145L195.75,157.75197876749473L196.475,158.14583172897773L197.20000000000002,158.14184776192528L197.925,158.67858806507252L198.65,158.69604428455023L199.375,158.9864012795647L200.1,158.7732432169132L200.825,158.68134428753925L201.54999999999998,158.85197693794382L202.275,158.87224359598133L203,158.95085261743182L203.725,158.76940787450295L204.45,158.41105870917386L205.175,158.59102208921283L205.89999999999998,158.97446157856348L206.625,158.72448852363456L207.35,158.88376535379643L208.07500000000002,158.91478296379682L208.79999999999998,159.10659266757142L209.525,159.04493607917638L210.25,159.12935945350003L210.97500000000002,158.46187615748903L211.7,158.86379400812675L212.425,158.57969019150408L213.15,158.63186329207224L213.875,158.87535380104208L214.6,158.1202836310697L215.32500000000002,158.57328203284825L216.05,158.91139045661413L216.775,159.14615647595738L217.5,159.07512560682827L218.225,158.7816996830001L218.95,159.133123751284L219.67499999999998,158.90431695384407L220.4,159.04762203109743L221.125,155.9618134329196L221.85,157.0804878956851L222.575,157.85974781813698L223.3,158.4340615554979L224.02499999999998,158.68163102717637L224.75,157.20917140156885L225.475,157.9590546552807L226.20000000000002,158.39899162655078L226.92499999999998,158.70251063772494L227.65,158.90506453457368L228.375,158.78185323941264L229.10000000000002,158.90641419494318L229.825,158.88375449854993L230.55,159.13623714418168L231.275,157.6122405050454L232,157.81790039052115L232.725,158.50091322996667L233.45000000000002,158.51315236531767L234.175,158.56031585003777L234.9,158.9105568814951L235.625,158.9985851860884L236.35,151.70116799411596L237.075,155.01263571149198L237.79999999999998,137.80913197995693L238.525,146.42522483956608L239.25,151.47409776384706L239.975,154.3434862520943L240.7,156.2220637760008L241.425,157.28297456598224L242.14999999999998,157.9947822123524L242.875,152.9339854474898L243.6,155.48811680033202L244.32500000000002,157.1898432869794L245.04999999999998,158.02587015460784L245.775,158.67709326166425L246.5,158.95183519536997L247.22500000000002,159.02668598140488L247.95,158.81991665975468L248.675,158.84672498680158L249.4,159.07196896712728L250.125,159.35671466905865L250.85,158.8712072337264L251.57500000000002,159.03160177800078L252.3,155.2896268987998L253.025,156.93432106358242L253.75,157.76997224179547L254.475,158.19303574809382L255.2,158.75883378610743L255.92499999999998,159.24125274868612L256.65,156.58591596504223L257.375,157.63849678170786L258.1,158.2232806681791L258.825,158.5207279898426" style="fill: none;" fill="none"></path></g></g></g></g><g opacity="0.2"><g><g><g><path stroke="rgb(255, 112, 67)" stroke-width="2px" d="M36.25725,22.045264850963243L36.975,138.05160479112104L37.7,150.05745707858694L38.425000000000004,131.23614087971777L39.150000000000006,155.94811372323468L39.875,153.43295392123136L40.6,155.73210297931325L41.324999999999996,155.2726974704049L42.05,155.61937887018377L42.775,156.03916041417554L43.5,156.01107625527814L44.225,156.17074604467913L44.95,155.02262933687732L45.675,156.1311949708245L46.4,155.04254586046392L47.125,156.42638458988884L47.85,155.30817431753331L48.575,156.82217730175364L49.300000000000004,148.9507962031798L50.025,157.67493750832298L50.75,157.15966291861102L51.474999999999994,158.13955664634705L52.199999999999996,134.62317752838135L52.925,156.48008612069216L53.65,157.26158380508423L54.375,157.97527170181274L55.1,156.98677299239418L55.825,157.7599783593958L56.550000000000004,157.06525940244848L57.275000000000006,158.12933655218646L58,138.14778646555814L58.725,157.15541605515912L59.449999999999996,158.95700880614194L60.175,157.52214057879016L60.9,157.7036796049638L61.625,157.11852550506592L62.35,156.60007631778717L63.075,106.0180777202953L63.8,151.74868125265294L64.525,130.34719217907298L65.25,157.31273223053324L65.97500000000001,157.58382559906352L66.7,157.68281933394346L67.425,158.0317469293421L68.14999999999999,158.2163166891445L68.875,158.00185583938253L69.6,158.3879751400514L70.325,158.44198549877513L71.05,158.5925074599006L71.775,157.96572105451062L72.5,158.7271008058028L73.225,154.3618411692706L73.95,159.06148087978363L74.675,156.02158407731488L75.4,158.97459089756012L76.125,158.51021345095202L76.85000000000001,142.8084026033228L77.575,149.72963911836797L78.30000000000001,158.5968310507861L79.025,156.43517755378377L79.75,158.12629622762853L80.47500000000001,156.69195358319715L81.2,158.63844033804807L81.925,157.8258085792715L82.64999999999999,155.52221700278196L83.375,158.03847976164386L84.1,153.56908757036382L84.82499999999999,158.06539766354993L85.55,157.81951501152733L86.27499999999999,159.20179617404938L87,158.7255892753601L87.725,157.67585056478327L88.45,156.25538024035367L89.175,158.6789332411506L89.9,158.57420221242037L90.625,144.04265928268433L91.35,158.81901068037206L92.075,158.5799452608282L92.8,159.02882184765556L93.525,157.77321000532672L94.25,120.43341695178638L94.97500000000001,153.9188419038599L95.7,157.9173405712301L96.42500000000001,157.20198193463412L97.15,157.8033926595341L97.875,146.6752197308974L98.60000000000001,158.254252650521L99.325,158.30289592526177L100.05,116.19116098230535L100.77499999999999,157.94563381238416L101.5,159.09601781585L102.225,157.93621935627678L102.94999999999999,158.07148790359497L103.675,158.17873751033437L104.39999999999999,159.3456179120324L105.125,158.50216282497752L105.85,159.40141793814573L106.575,157.10999341444537L107.3,159.23146667263725L108.025,158.40014027465475L108.75,159.39153736287898L109.475,158.26012421738017L110.2,158.4659417217428L110.925,157.87251256812704L111.65,151.59792335466906L112.375,146.92213628508827L113.10000000000001,158.99131939627907L113.825,124.49181864478372L114.55000000000001,159.03861035000193L115.275,147.06917482072657L116,159.0051188252189L116.72500000000001,157.10404128378087L117.45,159.11197136748922L118.175,158.51536186174914L118.89999999999999,156.89089822769165L119.625,158.67231166362762L120.35,158.84972850842908L121.07499999999999,158.9529038884423L121.8,159.03616658124056L122.52499999999999,157.89010425047442L123.25,154.07018868489698L123.975,158.82161941311577L124.7,158.11139767820185L125.425,158.8601174029437L126.15,152.3289996060458L126.875,158.4707141681151L127.6,144.18391832438382L128.325,158.90275483781642L129.05,158.80430011315778L129.775,158.6571023680947L130.5,156.90966575795954L131.225,157.45349829847163L131.95000000000002,157.7788686535575L132.675,158.51702684705907L133.4,158.21468814936551L134.125,119.85710568861529L134.85,157.199643666094L135.57500000000002,158.1923604661768L136.29999999999998,156.09783388267863L137.025,158.16120145537636L137.75,158.35214151035655L138.475,158.946117346937L139.2,158.75095344673502L139.92499999999998,158.05732018297368L140.65,158.52598669312218L141.375,157.29047360203484L142.1,158.70706343650818L142.825,153.42145056074315L143.55,158.49448624524203L144.275,140.73095362836665L145,159.18796413595027L145.725,158.72582713040438L146.45,157.3806782093915L147.17499999999998,158.07497516545382L147.9,158.9752833626487L148.625,158.6349300579591L149.35,159.23272116617724L150.075,158.40380400961095L150.8,158.66730136221105L151.52499999999998,158.43827764554456L152.25,154.380482099273L152.975,150.74269060655072L153.70000000000002,152.2429248528047L154.42499999999998,156.49911644242027L155.15,158.43484217470342L155.875,158.40210449695587L156.60000000000002,158.20985815741798L157.325,159.0469506220384L158.05,158.62650922211733L158.775,157.84285166046837L159.5,158.49499264630404L160.225,156.39060850576922L160.95000000000002,159.20788833228025L161.675,158.93845803087407L162.4,159.12555020505732L163.125,158.8790019425479L163.85,159.42106399752876L164.575,158.2149317589673L165.29999999999998,150.1258308128877L166.025,158.58910459821874L166.75,157.64110838283193L167.475,159.29882568662816L168.2,159.32872636751696L168.925,159.2533416639675L169.64999999999998,159.052684079517L170.375,80.51420870694247L171.1,158.99842435663396L171.82500000000002,158.48118554462087L172.54999999999998,157.40110305222598L173.275,158.2091273286126L174,157.7676779573614L174.72500000000002,157.99086271632802L175.45,153.60464881766927L176.175,35.59249071641401L176.9,112.35438264500011L177.625,159.5670974037864L178.35,153.8622228123925L179.07500000000002,158.32089234482157L179.8,158.89067985794762L180.525,158.93469646843997L181.25,158.83135996081612L181.975,158.50140897794202L182.7,158.96664001724938L183.42499999999998,158.3041907007044L184.15,159.02117212252185L184.875,159.56257815794513L185.6,158.07415610009974L186.325,157.0867680202831L187.05,158.8755319443616L187.77499999999998,158.80981489745054L188.5,155.06269256635144L189.225,151.84076184576207L189.95000000000002,158.64739826592532L190.67499999999998,159.52300598404625L191.4,159.04942124540156L192.125,158.5177116394043L192.85000000000002,159.53848574378273L193.575,159.2939419854771L194.3,159.44896401058543L195.025,159.32636124437505L195.75,155.51597330786964L196.475,158.7366111712022L197.20000000000002,158.13587181134656L197.925,159.48369851979342L198.65,158.72222861376676L199.375,159.4219367720864L200.1,158.4535061229359L200.825,158.5434958934784L201.54999999999998,159.10792591355064L202.275,158.90264358303764L203,159.06876614960757L203.725,158.49724076010963L204.45,157.87353496118024L205.175,158.86096715927124L205.89999999999998,159.54962081258947L206.625,158.34952894124118L207.35,159.12268059903926L208.07500000000002,158.96130937879735L208.79999999999998,159.3943072232333L209.525,158.95245119658384L210.25,159.25599451498553L210.97500000000002,157.46065121347254L211.7,159.46667078408328L212.425,158.15353446657008L213.15,158.7101229429245L213.875,159.24058956449682L214.6,156.98767837611112L215.32500000000002,159.25277963551608L216.05,159.41855309226295L216.775,159.49830550497228L217.5,158.96857930313456L218.225,158.34156079725787L218.95,159.66025985370982L219.67499999999998,158.5611067576842L220.4,159.2625796469775L221.125,151.33310053565285L221.85,158.75849958983335L222.575,159.02863770181483L223.3,159.29553216153926L224.02499999999998,159.05298523469403L224.75,155.00048196315765L225.475,159.08387953584844L226.20000000000002,159.05889708345586L226.92499999999998,159.1577891544862L227.65,159.20889537984675L228.375,158.5970362966711L229.10000000000002,159.09325562823904L229.825,158.84976495396006L230.55,159.5149611126293L231.275,155.32624554634094L232,158.12639021873474L232.725,159.52543248913506L233.45000000000002,158.53151106834412L234.175,158.63106107711792L234.9,159.4359184286811L235.625,159.1306276429783L236.35,140.75504220615733L237.075,159.97983728755605L237.79999999999998,112.00387638265437L238.525,159.34936412897977L239.25,159.04740715026855L239.975,158.64756898446515L240.7,159.03993006186053L241.425,158.87434075095436L242.14999999999998,159.06249368190765L242.875,145.34279030019587L243.6,159.3193138295954L244.32500000000002,159.74243301695043L245.04999999999998,159.27991045605052L245.775,159.65392792224884L246.5,159.36394809592855L247.22500000000002,159.13896216045725L247.95,158.50976267727938L248.675,158.8869374773719L249.4,159.40983493761584L250.125,159.78383322195575L250.85,158.14294608072802L251.57500000000002,159.27219359441236L252.3,149.67666457999837L253.025,159.40136231075633L253.75,159.02344900911504L254.475,158.8276310075413L255.2,159.60753084312785L255.92499999999998,159.96488119255412L256.65,152.60291078957644L257.375,159.21736800670624L258.1,159.10045649788597L258.825,158.9668989723379" style="fill: none;" fill="none"></path></g></g></g></g></g></g><g transform="translate(40, 177)" clip-path="url(#clip_1)"><clipPath id="clip_1"><rect width="290" height="23"></rect></clipPath><g><g><line x1="0" y1="0" x2="0" y2="5" style="visibility: inherit;" fill="rgb(0, 0, 0)" stroke="rgb(204, 204, 204)" stroke-width="1px"></line><line x1="36.25" y1="0" x2="36.25" y2="5" style="visibility: inherit;" fill="rgb(0, 0, 0)" stroke="rgb(204, 204, 204)" stroke-width="1px"></line><line x1="72.5" y1="0" x2="72.5" y2="5" style="visibility: inherit;" fill="rgb(0, 0, 0)" stroke="rgb(204, 204, 204)" stroke-width="1px"></line><line x1="108.75" y1="0" x2="108.75" y2="5" style="visibility: inherit;" fill="rgb(0, 0, 0)" stroke="rgb(204, 204, 204)" stroke-width="1px"></line><line x1="145" y1="0" x2="145" y2="5" style="visibility: inherit;" fill="rgb(0, 0, 0)" stroke="rgb(204, 204, 204)" stroke-width="1px"></line><line x1="181.25" y1="0" x2="181.25" y2="5" style="visibility: inherit;" fill="rgb(0, 0, 0)" stroke="rgb(204, 204, 204)" stroke-width="1px"></line><line x1="217.5" y1="0" x2="217.5" y2="5" style="visibility: inherit;" fill="rgb(0, 0, 0)" stroke="rgb(204, 204, 204)" stroke-width="1px"></line><line x1="253.75" y1="0" x2="253.75" y2="5" style="visibility: inherit;" fill="rgb(0, 0, 0)" stroke="rgb(204, 204, 204)" stroke-width="1px"></line><line x1="290" y1="0" x2="290" y2="5" style="visibility: inherit;" fill="rgb(0, 0, 0)" stroke="rgb(204, 204, 204)" stroke-width="1px"></line></g><g transform="translate(0, 8)"><text x="0" y="0" dx="0em" dy="0.95em" style="text-anchor: middle; visibility: hidden; font-family: Roboto, sans-serif; font-size: 12px; font-weight: 200;" fill="rgb(33, 33, 33)" stroke="none" stroke-width="1px">-5k</text><text x="36.25" y="0" dx="0em" dy="0.95em" style="text-anchor: middle; visibility: inherit; font-family: Roboto, sans-serif; font-size: 12px; font-weight: 200;" fill="rgb(33, 33, 33)" stroke="none" stroke-width="1px">0</text><text x="72.5" y="0" dx="0em" dy="0.95em" style="text-anchor: middle; visibility: inherit; font-family: Roboto, sans-serif; font-size: 12px; font-weight: 200;" fill="rgb(33, 33, 33)" stroke="none" stroke-width="1px">5k</text><text x="108.75" y="0" dx="0em" dy="0.95em" style="text-anchor: middle; visibility: inherit; font-family: Roboto, sans-serif; font-size: 12px; font-weight: 200;" fill="rgb(33, 33, 33)" stroke="none" stroke-width="1px">10k</text><text x="145" y="0" dx="0em" dy="0.95em" style="text-anchor: middle; visibility: inherit; font-family: Roboto, sans-serif; font-size: 12px; font-weight: 200;" fill="rgb(33, 33, 33)" stroke="none" stroke-width="1px">15k</text><text x="181.25" y="0" dx="0em" dy="0.95em" style="text-anchor: middle; visibility: inherit; font-family: Roboto, sans-serif; font-size: 12px; font-weight: 200;" fill="rgb(33, 33, 33)" stroke="none" stroke-width="1px">20k</text><text x="217.5" y="0" dx="0em" dy="0.95em" style="text-anchor: middle; visibility: inherit; font-family: Roboto, sans-serif; font-size: 12px; font-weight: 200;" fill="rgb(33, 33, 33)" stroke="none" stroke-width="1px">25k</text><text x="253.75" y="0" dx="0em" dy="0.95em" style="text-anchor: middle; visibility: inherit; font-family: Roboto, sans-serif; font-size: 12px; font-weight: 200;" fill="rgb(33, 33, 33)" stroke="none" stroke-width="1px">30k</text><text x="290" y="0" dx="0em" dy="0.95em" style="text-anchor: middle; visibility: hidden; font-family: Roboto, sans-serif; font-size: 12px; font-weight: 200;" fill="rgb(33, 33, 33)" stroke="none" stroke-width="1px">35k</text></g><line x1="0" y1="0" x2="290" y2="0" fill="rgb(0, 0, 0)" stroke="rgb(204, 204, 204)" stroke-width="1px"></line></g></g></g></g></svg>