<svg viewBox="0 0 330 200" xmlns="http://www.w3.org/2000/svg"><g><g><g><g><g><line x1="50" y1="177" x2="45" y2="177" style="visibility: inherit;" fill="rgb(0, 0, 0)" stroke="rgb(204, 204, 204)" stroke-width="1px"></line><line x1="50" y1="162.25" x2="45" y2="162.25" style="visibility: inherit;" fill="rgb(0, 0, 0)" stroke="rgb(204, 204, 204)" stroke-width="1px"></line><line x1="50" y1="147.5" x2="45" y2="147.5" style="visibility: inherit;" fill="rgb(0, 0, 0)" stroke="rgb(204, 204, 204)" stroke-width="1px"></line><line x1="50" y1="132.75" x2="45" y2="132.75" style="visibility: inherit;" fill="rgb(0, 0, 0)" stroke="rgb(204, 204, 204)" stroke-width="1px"></line><line x1="50" y1="118.00000000000001" x2="45" y2="118.00000000000001" style="visibility: inherit;" fill="rgb(0, 0, 0)" stroke="rgb(204, 204, 204)" stroke-width="1px"></line><line x1="50" y1="103.25" x2="45" y2="103.25" style="visibility: inherit;" fill="rgb(0, 0, 0)" stroke="rgb(204, 204, 204)" stroke-width="1px"></line><line x1="50" y1="88.50000000000001" x2="45" y2="88.50000000000001" style="visibility: inherit;" fill="rgb(0, 0, 0)" stroke="rgb(204, 204, 204)" stroke-width="1px"></line><line x1="50" y1="73.75000000000001" x2="45" y2="73.75000000000001" style="visibility: inherit;" fill="rgb(0, 0, 0)" stroke="rgb(204, 204, 204)" stroke-width="1px"></line><line x1="50" y1="59.00000000000003" x2="45" y2="59.00000000000003" style="visibility: inherit;" fill="rgb(0, 0, 0)" stroke="rgb(204, 204, 204)" stroke-width="1px"></line><line x1="50" y1="44.25000000000002" x2="45" y2="44.25000000000002" style="visibility: inherit;" fill="rgb(0, 0, 0)" stroke="rgb(204, 204, 204)" stroke-width="1px"></line><line x1="50" y1="29.500000000000014" x2="45" y2="29.500000000000014" style="visibility: inherit;" fill="rgb(0, 0, 0)" stroke="rgb(204, 204, 204)" stroke-width="1px"></line><line x1="50" y1="14.750000000000007" x2="45" y2="14.750000000000007" style="visibility: inherit;" fill="rgb(0, 0, 0)" stroke="rgb(204, 204, 204)" stroke-width="1px"></line><line x1="50" y1="0" x2="45" y2="0" style="visibility: inherit;" fill="rgb(0, 0, 0)" stroke="rgb(204, 204, 204)" stroke-width="1px"></line></g><g transform="translate(40, 0)"><text x="0" y="177" dx="0em" dy="0.3em" style="text-anchor: end; visibility: hidden; font-family: Roboto, sans-serif; font-size: 12px; font-weight: 200;" fill="rgb(33, 33, 33)" stroke="none" stroke-width="1px">-0.2</text><text x="0" y="162.25" dx="0em" dy="0.3em" style="text-anchor: end; visibility: inherit; font-family: Roboto, sans-serif; font-size: 12px; font-weight: 200;" fill="rgb(33, 33, 33)" stroke="none" stroke-width="1px">0</text><text x="0" y="147.5" dx="0em" dy="0.3em" style="text-anchor: end; visibility: hidden; font-family: Roboto, sans-serif; font-size: 12px; font-weight: 200;" fill="rgb(33, 33, 33)" stroke="none" stroke-width="1px">0.2</text><text x="0" y="132.75" dx="0em" dy="0.3em" style="text-anchor: end; visibility: inherit; font-family: Roboto, sans-serif; font-size: 12px; font-weight: 200;" fill="rgb(33, 33, 33)" stroke="none" stroke-width="1px">0.4</text><text x="0" y="118.00000000000001" dx="0em" dy="0.3em" style="text-anchor: end; visibility: hidden; font-family: Roboto, sans-serif; font-size: 12px; font-weight: 200;" fill="rgb(33, 33, 33)" stroke="none" stroke-width="1px">0.6</text><text x="0" y="103.25" dx="0em" dy="0.3em" style="text-anchor: end; visibility: inherit; font-family: Roboto, sans-serif; font-size: 12px; font-weight: 200;" fill="rgb(33, 33, 33)" stroke="none" stroke-width="1px">0.8</text><text x="0" y="88.50000000000001" dx="0em" dy="0.3em" style="text-anchor: end; visibility: hidden; font-family: Roboto, sans-serif; font-size: 12px; font-weight: 200;" fill="rgb(33, 33, 33)" stroke="none" stroke-width="1px">1</text><text x="0" y="73.75000000000001" dx="0em" dy="0.3em" style="text-anchor: end; visibility: inherit; font-family: Roboto, sans-serif; font-size: 12px; font-weight: 200;" fill="rgb(33, 33, 33)" stroke="none" stroke-width="1px">1.2</text><text x="0" y="59.00000000000003" dx="0em" dy="0.3em" style="text-anchor: end; visibility: hidden; font-family: Roboto, sans-serif; font-size: 12px; font-weight: 200;" fill="rgb(33, 33, 33)" stroke="none" stroke-width="1px">1.4</text><text x="0" y="44.25000000000002" dx="0em" dy="0.3em" style="text-anchor: end; visibility: inherit; font-family: Roboto, sans-serif; font-size: 12px; font-weight: 200;" fill="rgb(33, 33, 33)" stroke="none" stroke-width="1px">1.6</text><text x="0" y="29.500000000000014" dx="0em" dy="0.3em" style="text-anchor: end; visibility: hidden; font-family: Roboto, sans-serif; font-size: 12px; font-weight: 200;" fill="rgb(33, 33, 33)" stroke="none" stroke-width="1px">1.8</text><text x="0" y="14.750000000000007" dx="0em" dy="0.3em" style="text-anchor: end; visibility: inherit; font-family: Roboto, sans-serif; font-size: 12px; font-weight: 200;" fill="rgb(33, 33, 33)" stroke="none" stroke-width="1px">2</text><text x="0" y="0" dx="0em" dy="0.3em" style="text-anchor: end; visibility: hidden; font-family: Roboto, sans-serif; font-size: 12px; font-weight: 200;" fill="rgb(33, 33, 33)" stroke="none" stroke-width="1px">2.2</text></g><line x1="50" y1="0" x2="50" y2="177" fill="rgb(0, 0, 0)" stroke="rgb(204, 204, 204)" stroke-width="1px"></line></g></g><g transform="translate(50, 0)" clip-path="url(#clip_0)"><clipPath id="clip_0"><rect width="280" height="177"></rect></clipPath><g><g><g><line x1="0" y1="0" x2="0" y2="177" fill="rgb(0, 0, 0)" stroke="rgb(66, 66, 66)" stroke-width="1px" opacity="0.25"></line><line x1="35" y1="0" x2="35" y2="177" fill="rgb(0, 0, 0)" stroke="rgb(66, 66, 66)" stroke-width="1px" opacity="0.25"></line><line x1="70" y1="0" x2="70" y2="177" fill="rgb(0, 0, 0)" stroke="rgb(66, 66, 66)" stroke-width="1px" opacity="0.25"></line><line x1="105" y1="0" x2="105" y2="177" fill="rgb(0, 0, 0)" stroke="rgb(66, 66, 66)" stroke-width="1px" opacity="0.25"></line><line x1="140" y1="0" x2="140" y2="177" fill="rgb(0, 0, 0)" stroke="rgb(66, 66, 66)" stroke-width="1px" opacity="0.25"></line><line x1="175" y1="0" x2="175" y2="177" fill="rgb(0, 0, 0)" stroke="rgb(66, 66, 66)" stroke-width="1px" opacity="0.25"></line><line x1="210" y1="0" x2="210" y2="177" fill="rgb(0, 0, 0)" stroke="rgb(66, 66, 66)" stroke-width="1px" opacity="0.25"></line><line x1="245" y1="0" x2="245" y2="177" fill="rgb(0, 0, 0)" stroke="rgb(66, 66, 66)" stroke-width="1px" opacity="0.25"></line><line x1="280" y1="0" x2="280" y2="177" fill="rgb(0, 0, 0)" stroke="rgb(66, 66, 66)" stroke-width="1px" opacity="0.25"></line></g><g><line x1="0" y1="177" x2="280" y2="177" fill="rgb(0, 0, 0)" stroke="rgb(66, 66, 66)" stroke-width="1px" opacity="0.25"></line><line x1="0" y1="162.25" x2="280" y2="162.25" fill="rgb(0, 0, 0)" stroke="rgb(66, 66, 66)" stroke-width="1px" opacity="0.25"></line><line x1="0" y1="147.5" x2="280" y2="147.5" fill="rgb(0, 0, 0)" stroke="rgb(66, 66, 66)" stroke-width="1px" opacity="0.25"></line><line x1="0" y1="132.75" x2="280" y2="132.75" fill="rgb(0, 0, 0)" stroke="rgb(66, 66, 66)" stroke-width="1px" opacity="0.25"></line><line x1="0" y1="118.00000000000001" x2="280" y2="118.00000000000001" fill="rgb(0, 0, 0)" stroke="rgb(66, 66, 66)" stroke-width="1px" opacity="0.25"></line><line x1="0" y1="103.25" x2="280" y2="103.25" fill="rgb(0, 0, 0)" stroke="rgb(66, 66, 66)" stroke-width="1px" opacity="0.25"></line><line x1="0" y1="88.50000000000001" x2="280" y2="88.50000000000001" fill="rgb(0, 0, 0)" stroke="rgb(66, 66, 66)" stroke-width="1px" opacity="0.25"></line><line x1="0" y1="73.75000000000001" x2="280" y2="73.75000000000001" fill="rgb(0, 0, 0)" stroke="rgb(66, 66, 66)" stroke-width="1px" opacity="0.25"></line><line x1="0" y1="59.00000000000003" x2="280" y2="59.00000000000003" fill="rgb(0, 0, 0)" stroke="rgb(66, 66, 66)" stroke-width="1px" opacity="0.25"></line><line x1="0" y1="44.25000000000002" x2="280" y2="44.25000000000002" fill="rgb(0, 0, 0)" stroke="rgb(66, 66, 66)" stroke-width="1px" opacity="0.25"></line><line x1="0" y1="29.500000000000014" x2="280" y2="29.500000000000014" fill="rgb(0, 0, 0)" stroke="rgb(66, 66, 66)" stroke-width="1px" opacity="0.25"></line><line x1="0" y1="14.750000000000007" x2="280" y2="14.750000000000007" fill="rgb(0, 0, 0)" stroke="rgb(66, 66, 66)" stroke-width="1px" opacity="0.25"></line><line x1="0" y1="0" x2="280" y2="0" fill="rgb(0, 0, 0)" stroke="rgb(66, 66, 66)" stroke-width="1px" opacity="0.25"></line></g></g></g><g><g><line x1="0" y1="162.25" x2="280" y2="162.25" fill="rgb(0, 0, 0)" stroke="rgb(153, 153, 153)" stroke-width="1.5px"></line></g></g><g><g><line x1="35" y1="0" x2="35" y2="177" fill="rgb(0, 0, 0)" stroke="rgb(153, 153, 153)" stroke-width="1.5px"></line></g></g><g><g><g><g><g><path stroke="rgb(255, 112, 67)" stroke-width="2px" d="M35.007,162.24520106694945L35.7,161.94826710456914L36.4,161.61252544625933L37.1,161.24386489117475L37.800000000000004,160.84768256006316L38.5,160.4293030051193L39.2,159.9936421500761L39.9,159.54494779764278L40.599999999999994,159.08669204325375L41.3,158.62158711829758L42,158.15167421198242L42.699999999999996,157.67844396615868L43.4,157.2029574867861L44.1,156.72595560598296L44.800000000000004,156.24794631025983L45.5,155.7692730138447L46.2,155.29016576515656L46.900000000000006,154.81077639325554L47.6,154.33120502074547L48.3,153.85151644943727L49,153.3717528875003L49.699999999999996,152.8919417465471L50.4,152.4121003748943L51.1,151.93223985460824L51.8,151.452366799337L52.5,150.97248629889418L53.2,150.4926011130745L53.9,150.0127129850595L54.6,149.53282301314383L55.300000000000004,149.0529314481527L56,148.57303933861002L56.7,148.0931468853618L57.4,147.6132542157055L58.099999999999994,147.13336097050922L58.8,146.65346781590665L59.5,146.17357471346045L60.199999999999996,145.69368164098813L60.9,145.2137885857081L61.6,144.73389510068404L62.300000000000004,144.25400179711272L63,143.7741081626577L63.7,143.29421520873836L64.4,142.8143217839103L65.10000000000001,142.33442895566859L65.8,141.854535606188L66.5,141.3746419439508L67.2,140.89474897322012L67.89999999999999,140.41485553822008L68.6,139.93496182465555L69.3,139.45506882311912L70,138.97517536963L70.7,138.49528252413714L71.4,138.01538916427316L72.10000000000001,137.5354954957863L72.8,137.05560252129408L73.5,136.57570908403002L74.2,136.09581624827138L74.9,135.61592289424743L75.60000000000001,135.13602922926424L76.30000000000001,134.65613625687405L77,134.17624282087112L77.7,133.69634910670058L78.4,133.21645610479794L79.1,132.73656265108752L79.8,132.25666980546097L80.5,131.77677644551625L81.19999999999999,131.29688277698057L81.89999999999999,130.81698980245886L82.6,130.33709636517702L83.3,129.85720352940763L84,129.37731017537715L84.7,128.8974165103901L85.39999999999999,128.4175235379975L86.1,127.93763010199314L86.8,127.45773726699022L87.5,126.97784391341963L88.2,126.49795024870849L88.9,126.0180572764815L89.60000000000001,125.53816384057649L90.3,125.05827012646465L91,124.57837624542873L91.7,124.09848402257536L92.4,123.61859103629457L93.10000000000001,123.13869759195725L93.80000000000001,122.65880387278604L94.5,122.17890998871452L95.2,121.6990177640398L95.9,121.21912477666615L96.6,120.73923133167314L97.3,120.25933761210851L98,119.77944372780094L98.69999999999999,119.29955150298457L99.39999999999999,118.81965851552594L100.1,118.33976507048195L100.8,117.85987135088676L101.5,117.3799774665608L102.2,116.90008348339639L102.89999999999999,116.420191199266L103.6,115.9402981762189L104.3,115.46040470982184L105,114.9805109774148L105.7,114.50061708540173L106.4,114.02072485596213L107.10000000000001,113.54083186572952L107.8,113.06093841902116L108.5,112.58104469842733L109.2,112.1011508135022L109.9,111.62125858831533L110.60000000000001,111.14136560063437L111.30000000000001,110.66147215545699L112,110.18157843578176L112.7,109.70168455140777L113.4,109.22179232655161L114.1,108.74189933906909L114.8,108.26200589401076L115.5,107.78211217440698L116.19999999999999,107.30221829007584L116.89999999999999,106.82232606524539L117.6,106.3424330777783L118.3,105.86253963272921L119,105.38264591313096L119.7,104.90275202880318L120.39999999999999,104.42285804563771L121.1,103.94296576150661L121.8,103.46307273845916L122.5,102.98317927206186L123.2,102.50328553965466L123.9,102.02339164764153L124.60000000000001,101.54349941820186L125.3,101.06360642796923L126,100.58371298126083L126.7,100.10381926066698L127.4,99.62392537574185L128.1,99.14403315055498L128.8,98.66414016287405L129.5,98.18424671769665L130.20000000000002,97.70435299802143L130.9,97.22445911364744L131.6,96.74456688879127L132.29999999999998,96.26467390130877L133,95.78478045625042L133.7,95.30488673664661L134.4,94.8249928523155L135.1,94.34510062748502L135.79999999999998,93.86520764001793L136.5,93.38531419496886L137.2,92.90542047537062L137.9,92.42552659104282L138.6,91.94563436621438L139.3,91.46574137874848L140,90.98584793370013L140.7,90.5059542141023L141.4,90.02606032977478L142.1,89.54616634660947L142.8,89.06627406247846L143.5,88.58638103943107L144.20000000000002,88.1064875730338L144.89999999999998,87.62659384062663L145.6,87.14669994861352L146.29999999999998,86.66680596083681L147,86.186911915602L147.7,85.70702135256631L148.4,85.22712936217609L149.1,84.74723651537313L149.8,84.26734315472255L150.5,83.78744948576337L151.20000000000002,83.30755563181906L151.9,82.82766166688364L152.60000000000002,82.34776763535359L153.29999999999998,81.86787356386674L154,81.3879794684058L154.7,80.90808535856043L155.4,80.42819475675843L156.1,79.9483027431084L156.8,79.46840988234959L157.5,78.98851651332545L158.2,78.5086228393422L158.9,78.02872898238338L159.6,77.54883501563931L160.3,77.06894098302402L161,76.58904691088604L161.70000000000002,76.10915281503445L162.39999999999998,75.6292622216287L163.1,75.14937021301644L163.79999999999998,74.66947735528026L164.5,74.18958398806976L165.2,73.70969031517463L165.9,73.22979645886872L166.6,72.74990249251638L167.3,72.27000846013614L168,71.79011438813919L168.70000000000002,71.31022029237221L169.4,70.8303261823432L170.10000000000002,70.35043558043101L170.79999999999998,69.87054356671489L171.5,69.39065070591639L172.2,68.91075733686849L172.9,68.43086366287092L173.6,67.95096980590355L174.3,67.47107583915431L175,66.99118180653596L175.7,66.51128773439612L176.4,66.03139363854342L177.1,65.55150304513703L177.8,65.07161103652436L178.5,64.59171817878796L179.20000000000002,64.11182481157728L179.89999999999998,63.63193113868207L180.6,63.15203728237612L181.29999999999998,62.67214331602373L182,62.19224928364346L182.7,61.71235521164652L183.4,61.2324611158795L184.1,60.752570522524536L184.8,60.27267851394273L185.5,59.79278565622484L186.20000000000002,59.31289228902529L186.9,58.832998616136734L187.60000000000002,58.35310475983479L188.29999999999998,57.873210793484795L189,57.393316761105986L189.7,56.91342268910988L190.4,56.433528593343404L191.1,55.953634483314694L191.8,55.473743881402704L192.5,54.99385186768669L193.2,54.51395900688828L193.9,54.034065637840406L194.6,53.55417196384286L195.3,53.074278106875525L196,52.5943841401263L196.70000000000002,52.11449010750794L197.39999999999998,51.63459603536811L198.1,51.154701939515405L198.79999999999998,50.67481134610901L199.5,50.19491933749635L200.2,49.71502647975993L200.9,49.235133112549256L201.6,48.755239439654055L202.3,48.27534558334809L203,47.79545161699571L203.70000000000002,47.31555758461545L204.4,46.8356635126185L205.10000000000002,46.35576941685149L205.79999999999998,45.87587530682249L206.5,45.39598470491032L207.2,44.91609269119417L207.9,44.4361998303957L208.6,43.956306461347786L209.3,43.47641278735023L210,42.99651893038285L210.7,42.51662496363362L211.4,42.03673093101526L212.1,41.556836858875435L212.8,41.07694276302273L213.5,40.597052169616326L214.20000000000002,40.117160161003675L214.89999999999998,39.637267303267265L215.6,39.15737393605658L216.29999999999998,38.67748026316136L217,38.19758640685541L217.7,37.717692440503036L218.4,37.23779840812279L219.1,36.757904336125826L219.8,36.27801024035883L220.5,35.798119647003844L221.20000000000002,35.31822763842204L221.9,34.83833478070412L222.60000000000002,34.35844141350458L223.29999999999998,33.87854774061606L224,33.39865388431408L224.7,32.9187599179641L225.4,32.438865885585294L226.1,31.958971813589187L226.8,31.479077717822708L227.5,30.999183607793984L228.2,30.51929300588201L228.9,30.039400992166L229.6,29.559508131367586L230.3,29.079614762319693L231,28.59972108832215L231.70000000000002,28.11982723135481L232.39999999999998,27.639933264605567L233.1,27.16003923198721L233.79999999999998,26.6801451598474L234.5,26.200251063994692L235.2,25.720360470588293L235.9,25.2404684619756L236.6,24.760575604239193L237.3,24.280682237028547L238,23.800788564133324L238.70000000000002,23.320894707827375L239.4,22.841000741474982L240.10000000000002,22.361106709094738L240.79999999999998,21.88121263709779L241.5,21.401318541330777L242.2,20.921427947975808L242.9,20.441535939394004L243.6,19.96164308167613L244.3,19.481749714476564L245,19.001856041588024L245.7,18.521962185286064L246.4,18.04206821893607L247.1,17.562174186557257L247.8,17.082280114561154L248.5,16.602386018794675L249.20000000000002,16.12249190876599L249.89999999999998,15.642601306853974L250.152,15.285560784112388" style="fill: none;" fill="none"></path></g></g></g></g><g opacity="0.2"><g><g><g><path stroke="rgb(255, 112, 67)" stroke-width="2px" d="M35.007,162.24520106694945L35.7,161.77010672714096L36.4,161.2902134542819L37.1,160.8103200783953L37.800000000000004,160.33042690856382L38.5,159.85053346399218L39.2,159.3706401567906L39.9,158.8907471243292L40.599999999999994,158.41085381712765L41.3,157.93096050992608L42,157.45106692798436L42.699999999999996,156.97117389552295L43.4,156.49128031358123L44.1,156.01138728111982L44.800000000000004,155.53149424865842L45.5,155.0516006667167L46.2,154.5717076342553L46.900000000000006,154.09181405231357L47.6,153.61192101985216L48.3,153.13202743791044L49,152.6521338559687L49.699999999999996,152.1722408235073L50.4,151.6923477910459L51.1,151.2124547585845L51.8,150.73256062716246L52.5,150.25266759470105L53.2,149.77277456223965L53.9,149.29288152977824L54.6,148.81298849731684L55.300000000000004,148.3330943658948L56,147.8532013334334L56.7,147.37330830097198L57.4,146.89341526851058L58.099999999999994,146.41352113708854L58.8,145.93362810462713L59.5,145.45373507216573L60.199999999999996,144.97384203970432L60.9,144.49394900724292L61.6,144.01405487582088L62.300000000000004,143.53416184335947L63,143.05426771193743L63.7,142.57437577843666L64.4,142.09448164701462L65.10000000000001,141.61458971351385L65.8,141.1346955820918L66.5,140.65480145066977L67.2,140.174909517169L67.89999999999999,139.69501538574696L68.6,139.2151212543249L69.3,138.73522932082415L70,138.2553351894021L70.7,137.77544325590134L71.4,137.2955491244793L72.10000000000001,136.81565499305725L72.8,136.33576305955648L73.5,135.85586892813444L74.2,135.37597699463367L74.9,134.89608286321163L75.60000000000001,134.4161887317896L76.30000000000001,133.93629679828882L77,133.45640266686678L77.7,132.97650853544474L78.4,132.49661660194397L79.1,132.01672247052193L79.8,131.53683053702116L80.5,131.05693640559912L81.19999999999999,130.57704227417707L81.89999999999999,130.0971503406763L82.6,129.61725620925426L83.3,129.1373642757535L84,128.65747014433146L84.7,128.1775760129094L85.39999999999999,127.69768407940865L86.1,127.2177899479866L86.8,126.73789801448584L87.5,126.2580038830638L88.2,125.77810975164175L88.9,125.298217818141L89.60000000000001,124.81832368671895L90.3,124.33842955529691L91,123.85853542387487L91.7,123.37864568829536L92.4,122.89875155687332L93.10000000000001,122.41885742545128L93.80000000000001,121.93896329402924L94.5,121.45906916260722L95.2,120.9791794270277L95.9,120.49928529560566L96.6,120.01939116418362L97.3,119.53949703276157L98,119.05960290133953L98.69999999999999,118.57971316576005L99.39999999999999,118.09981903433801L100.1,117.61992490291597L100.8,117.14003077149393L101.5,116.66013664007188L102.2,116.18024250864984L102.89999999999999,115.70035277307036L103.6,115.22045864164832L104.3,114.74056451022628L105,114.26067037880424L105.7,113.78077624738219L106.4,113.30088651180267L107.10000000000001,112.82099238038063L107.8,112.34109824895859L108.5,111.86120411753654L109.2,111.3813099861145L109.9,110.90142025053503L110.60000000000001,110.42152611911298L111.30000000000001,109.94163198769094L112,109.4617378562689L112.7,108.98184372484685L113.4,108.50195398926738L114.1,108.02205985784533L114.8,107.54216572642329L115.5,107.06227159500125L116.19999999999999,106.5823774635792L116.89999999999999,106.10248772799969L117.6,105.62259359657764L118.3,105.1426994651556L119,104.66280533373356L119.7,104.18291120231152L120.39999999999999,103.70301707088947L121.1,103.22312733531L121.8,102.74323320388795L122.5,102.26333907246591L123.2,101.78344494104387L123.9,101.30355080962183L124.60000000000001,100.82366107404235L125.3,100.3437669426203L126,99.86387281119826L126.7,99.38397867977622L127.4,98.90408454835418L128.1,98.42419481277467L128.8,97.94430068135263L129.5,97.46440654993059L130.20000000000002,96.98451241850854L130.9,96.5046182870865L131.6,96.02472855150701L132.29999999999998,95.54483442008497L133,95.06494028866292L133.7,94.58504615724088L134.4,94.10515202581884L135.1,93.62526229023936L135.79999999999998,93.14536815881732L136.5,92.66547402739528L137.2,92.18557989597323L137.9,91.70568576455119L138.6,91.22579602897169L139.3,90.74590189754964L140,90.2660077661276L140.7,89.78611363470556L141.4,89.30621950328351L142.1,88.82632537186147L142.8,88.34643563628198L143.5,87.86654150485994L144.20000000000002,87.3866473734379L144.89999999999998,86.90675324201585L145.6,86.42685911059381L146.29999999999998,85.94696497917177L147,85.46707084774972L147.7,84.98718550801279L148.4,84.50729137659074L149.1,84.0273972451687L149.8,83.54750311374666L150.5,83.06760898232461L151.20000000000002,82.58771485090257L151.9,82.10782071948053L152.60000000000002,81.62792658805849L153.29999999999998,81.14803245663644L154,80.6681383252144L154.7,80.18824419379236L155.4,79.70835885405543L156.1,79.22846472263339L156.8,78.74857059121135L157.5,78.2686764597893L158.2,77.78878232836726L158.9,77.30888819694522L159.6,76.82899406552318L160.3,76.34909993410113L161,75.86920580267909L161.70000000000002,75.38931167125705L162.39999999999998,74.9094263315201L163.1,74.42953220009805L163.79999999999998,73.94963806867601L164.5,73.46974393725397L165.2,72.98984980583192L165.9,72.50995567440988L166.6,72.03006154298784L167.3,71.5501674115658L168,71.07027328014375L168.70000000000002,70.59037914872171L169.4,70.11048501729967L170.10000000000002,69.63059967756273L170.79999999999998,69.15070554614068L171.5,68.67081141471864L172.2,68.1909172832966L172.9,67.71102315187456L173.6,67.23112902045251L174.3,66.75123488903047L175,66.27134075760843L175.7,65.79144662618639L176.4,65.31155249476434L177.1,64.83166715502742L177.8,64.35177302360538L178.5,63.87187889218333L179.20000000000002,63.39198476076129L179.89999999999998,62.91209062933925L180.6,62.432196497917204L181.29999999999998,61.95230236649516L182,61.47240823507312L182.7,60.992514103651075L183.4,60.51261997222903L184.1,60.03273463249208L184.8,59.55284050107004L185.5,59.072946369647994L186.20000000000002,58.59305223822595L186.9,58.11315810680391L187.60000000000002,57.633263975381865L188.29999999999998,57.15336984395982L189,56.67347571253778L189.7,56.19358158111574L190.4,55.713687449693694L191.1,55.23379331827165L191.8,54.75390797853472L192.5,54.27401384711268L193.2,53.794119715690634L193.9,53.31422558426859L194.6,52.83433145284655L195.3,52.354437321424506L196,51.87454319000246L196.70000000000002,51.39464905858042L197.39999999999998,50.91475492715838L198.1,50.434860795736334L198.79999999999998,49.9549754559994L199.5,49.47508132457736L200.2,48.99518719315532L200.9,48.515293061733274L201.6,48.03539893031123L202.3,47.55550479888919L203,47.075610667467146L203.70000000000002,46.5957165360451L204.4,46.11582240462306L205.10000000000002,45.63592827320102L205.79999999999998,45.156034141778974L206.5,44.67614880204202L207.2,44.19625467062L207.9,43.71636053919796L208.6,43.236466407775914L209.3,42.75657227635387L210,42.27667814493183L210.7,41.796784013509786L211.4,41.31688988208774L212.1,40.8369957506657L212.8,40.35710161924366L213.5,39.877216279506705L214.20000000000002,39.39732214808466L214.89999999999998,38.91742801666262L215.6,38.437533885240576L216.29999999999998,37.95763975381853L217,37.47774562239649L217.7,36.99785149097445L218.4,36.517957359552405L219.1,36.03806322813036L219.8,35.55816909670832L220.5,35.07828375697139L221.20000000000002,34.598389625549345L221.9,34.1184954941273L222.60000000000002,33.63860136270526L223.29999999999998,33.158707231283216L224,32.67881309986117L224.7,32.19891896843913L225.4,31.719024837017084L226.1,31.23913070559504L226.8,30.759236574173L227.5,30.279342442750956L228.2,29.799457103014024L228.9,29.319562971591964L229.6,28.83966884016992L230.3,28.359774708747878L231,27.879880577325835L231.70000000000002,27.399986445903792L232.39999999999998,26.92009231448175L233.1,26.440198183059707L233.79999999999998,25.960304051637664L234.5,25.48040992021562L235.2,25.000524580478668L235.9,24.520630449056625L236.6,24.040736317634583L237.3,23.56084218621254L238,23.080948054790497L238.70000000000002,22.601053923368454L239.4,22.121159791946432L240.10000000000002,21.64126566052439L240.79999999999998,21.161371529102347L241.5,20.681477397680304L242.2,20.20159205794335L242.9,19.72169792652131L243.6,19.241803795099266L244.3,18.761909663677223L245,18.28201553225518L245.7,17.802121400833137L246.4,17.322227269411094L247.1,16.84233313798905L247.8,16.36243900656701L248.5,15.882544875144966L249.20000000000002,15.402650743722923L249.89999999999998,14.92276540398599L250.152,14.750000000000007" style="fill: none;" fill="none"></path></g></g></g></g></g></g><g transform="translate(50, 177)" clip-path="url(#clip_1)"><clipPath id="clip_1"><rect width="280" height="23"></rect></clipPath><g><g><line x1="0" y1="0" x2="0" y2="5" style="visibility: inherit;" fill="rgb(0, 0, 0)" stroke="rgb(204, 204, 204)" stroke-width="1px"></line><line x1="35" y1="0" x2="35" y2="5" style="visibility: inherit;" fill="rgb(0, 0, 0)" stroke="rgb(204, 204, 204)" stroke-width="1px"></line><line x1="70" y1="0" x2="70" y2="5" style="visibility: inherit;" fill="rgb(0, 0, 0)" stroke="rgb(204, 204, 204)" stroke-width="1px"></line><line x1="105" y1="0" x2="105" y2="5" style="visibility: inherit;" fill="rgb(0, 0, 0)" stroke="rgb(204, 204, 204)" stroke-width="1px"></line><line x1="140" y1="0" x2="140" y2="5" style="visibility: inherit;" fill="rgb(0, 0, 0)" stroke="rgb(204, 204, 204)" stroke-width="1px"></line><line x1="175" y1="0" x2="175" y2="5" style="visibility: inherit;" fill="rgb(0, 0, 0)" stroke="rgb(204, 204, 204)" stroke-width="1px"></line><line x1="210" y1="0" x2="210" y2="5" style="visibility: inherit;" fill="rgb(0, 0, 0)" stroke="rgb(204, 204, 204)" stroke-width="1px"></line><line x1="245" y1="0" x2="245" y2="5" style="visibility: inherit;" fill="rgb(0, 0, 0)" stroke="rgb(204, 204, 204)" stroke-width="1px"></line><line x1="280" y1="0" x2="280" y2="5" style="visibility: inherit;" fill="rgb(0, 0, 0)" stroke="rgb(204, 204, 204)" stroke-width="1px"></line></g><g transform="translate(0, 8)"><text x="0" y="0" dx="0em" dy="0.95em" style="text-anchor: middle; visibility: hidden; font-family: Roboto, sans-serif; font-size: 12px; font-weight: 200;" fill="rgb(33, 33, 33)" stroke="none" stroke-width="1px">-5k</text><text x="35" y="0" dx="0em" dy="0.95em" style="text-anchor: middle; visibility: inherit; font-family: Roboto, sans-serif; font-size: 12px; font-weight: 200;" fill="rgb(33, 33, 33)" stroke="none" stroke-width="1px">0</text><text x="70" y="0" dx="0em" dy="0.95em" style="text-anchor: middle; visibility: inherit; font-family: Roboto, sans-serif; font-size: 12px; font-weight: 200;" fill="rgb(33, 33, 33)" stroke="none" stroke-width="1px">5k</text><text x="105" y="0" dx="0em" dy="0.95em" style="text-anchor: middle; visibility: inherit; font-family: Roboto, sans-serif; font-size: 12px; font-weight: 200;" fill="rgb(33, 33, 33)" stroke="none" stroke-width="1px">10k</text><text x="140" y="0" dx="0em" dy="0.95em" style="text-anchor: middle; visibility: inherit; font-family: Roboto, sans-serif; font-size: 12px; font-weight: 200;" fill="rgb(33, 33, 33)" stroke="none" stroke-width="1px">15k</text><text x="175" y="0" dx="0em" dy="0.95em" style="text-anchor: middle; visibility: inherit; font-family: Roboto, sans-serif; font-size: 12px; font-weight: 200;" fill="rgb(33, 33, 33)" stroke="none" stroke-width="1px">20k</text><text x="210" y="0" dx="0em" dy="0.95em" style="text-anchor: middle; visibility: inherit; font-family: Roboto, sans-serif; font-size: 12px; font-weight: 200;" fill="rgb(33, 33, 33)" stroke="none" stroke-width="1px">25k</text><text x="245" y="0" dx="0em" dy="0.95em" style="text-anchor: middle; visibility: inherit; font-family: Roboto, sans-serif; font-size: 12px; font-weight: 200;" fill="rgb(33, 33, 33)" stroke="none" stroke-width="1px">30k</text><text x="280" y="0" dx="0em" dy="0.95em" style="text-anchor: middle; visibility: hidden; font-family: Roboto, sans-serif; font-size: 12px; font-weight: 200;" fill="rgb(33, 33, 33)" stroke="none" stroke-width="1px">35k</text></g><line x1="0" y1="0" x2="280" y2="0" fill="rgb(0, 0, 0)" stroke="rgb(204, 204, 204)" stroke-width="1px"></line></g></g></g></g></svg>