<svg viewBox="0 0 330 200" xmlns="http://www.w3.org/2000/svg"><g><line x1="50" y1="177.000" x2="45" y2="177.000" stroke="rgb(204,204,204)" stroke-width="1px"/><text x="40" y="177.000" dx="0em" dy="0.3em" style="text-anchor:end; font-family: Roboto, sans-serif; font-size: 12px; font-weight: 200;" fill="rgb(33,33,33)">1.5</text><line x1="50" y1="161.636" x2="45" y2="161.636" stroke="rgb(204,204,204)" stroke-width="1px"/><text x="40" y="161.636" dx="0em" dy="0.3em" style="text-anchor:end; font-family: Roboto, sans-serif; font-size: 12px; font-weight: 200;" fill="rgb(33,33,33)">1.8</text><line x1="50" y1="146.273" x2="45" y2="146.273" stroke="rgb(204,204,204)" stroke-width="1px"/><text x="40" y="146.273" dx="0em" dy="0.3em" style="text-anchor:end; font-family: Roboto, sans-serif; font-size: 12px; font-weight: 200;" fill="rgb(33,33,33)">2</text><line x1="50" y1="130.909" x2="45" y2="130.909" stroke="rgb(204,204,204)" stroke-width="1px"/><text x="40" y="130.909" dx="0em" dy="0.3em" style="text-anchor:end; font-family: Roboto, sans-serif; font-size: 12px; font-weight: 200;" fill="rgb(33,33,33)">2.3</text><line x1="50" y1="115.545" x2="45" y2="115.545" stroke="rgb(204,204,204)" stroke-width="1px"/><text x="40" y="115.545" dx="0em" dy="0.3em" style="text-anchor:end; font-family: Roboto, sans-serif; font-size: 12px; font-weight: 200;" fill="rgb(33,33,33)">2.6</text><line x1="50" y1="100.182" x2="45" y2="100.182" stroke="rgb(204,204,204)" stroke-width="1px"/><text x="40" y="100.182" dx="0em" dy="0.3em" style="text-anchor:end; font-family: Roboto, sans-serif; font-size: 12px; font-weight: 200;" fill="rgb(33,33,33)">2.9</text><line x1="50" y1="84.818" x2="45" y2="84.818" stroke="rgb(204,204,204)" stroke-width="1px"/><text x="40" y="84.818" dx="0em" dy="0.3em" style="text-anchor:end; font-family: Roboto, sans-serif; font-size: 12px; font-weight: 200;" fill="rgb(33,33,33)">3.1</text><line x1="50" y1="69.455" x2="45" y2="69.455" stroke="rgb(204,204,204)" stroke-width="1px"/><text x="40" y="69.455" dx="0em" dy="0.3em" style="text-anchor:end; font-family: Roboto, sans-serif; font-size: 12px; font-weight: 200;" fill="rgb(33,33,33)">3.4</text><line x1="50" y1="54.091" x2="45" y2="54.091" stroke="rgb(204,204,204)" stroke-width="1px"/><text x="40" y="54.091" dx="0em" dy="0.3em" style="text-anchor:end; font-family: Roboto, sans-serif; font-size: 12px; font-weight: 200;" fill="rgb(33,33,33)">3.7</text><line x1="50" y1="38.727" x2="45" y2="38.727" stroke="rgb(204,204,204)" stroke-width="1px"/><text x="40" y="38.727" dx="0em" dy="0.3em" style="text-anchor:end; font-family: Roboto, sans-serif; font-size: 12px; font-weight: 200;" fill="rgb(33,33,33)">4</text><line x1="50" y1="23.364" x2="45" y2="23.364" stroke="rgb(204,204,204)" stroke-width="1px"/><text x="40" y="23.364" dx="0em" dy="0.3em" style="text-anchor:end; font-family: Roboto, sans-serif; font-size: 12px; font-weight: 200;" fill="rgb(33,33,33)">4.2</text><line x1="50" y1="8.000" x2="45" y2="8.000" stroke="rgb(204,204,204)" stroke-width="1px"/><text x="40" y="8.000" dx="0em" dy="0.3em" style="text-anchor:end; font-family: Roboto, sans-serif; font-size: 12px; font-weight: 200;" fill="rgb(33,33,33)">4.5</text><line x1="50" y1="8" x2="50" y2="177" stroke="rgb(204,204,204)" stroke-width="1px"/><line x1="50" y1="177" x2="330" y2="177" stroke="rgb(204,204,204)" stroke-width="1px"/><line x1="50.000" y1="8" x2="50.000" y2="177" stroke="rgb(66,66,66)" stroke-width="1px" opacity="0.25"/><line x1="90.000" y1="8" x2="90.000" y2="177" stroke="rgb(66,66,66)" stroke-width="1px" opacity="0.25"/><line x1="130.000" y1="8" x2="130.000" y2="177" stroke="rgb(66,66,66)" stroke-width="1px" opacity="0.25"/><line x1="170.000" y1="8" x2="170.000" y2="177" stroke="rgb(66,66,66)" stroke-width="1px" opacity="0.25"/><line x1="210.000" y1="8" x2="210.000" y2="177" stroke="rgb(66,66,66)" stroke-width="1px" opacity="0.25"/><line x1="250.000" y1="8" x2="250.000" y2="177" stroke="rgb(66,66,66)" stroke-width="1px" opacity="0.25"/><line x1="290.000" y1="8" x2="290.000" y2="177" stroke="rgb(66,66,66)" stroke-width="1px" opacity="0.25"/><line x1="330.000" y1="8" x2="330.000" y2="177" stroke="rgb(66,66,66)" stroke-width="1px" opacity="0.25"/><line x1="50" y1="177.000" x2="330" y2="177.000" stroke="rgb(66,66,66)" stroke-width="1px" opacity="0.25"/><line x1="50" y1="161.636" x2="330" y2="161.636" stroke="rgb(66,66,66)" stroke-width="1px" opacity="0.25"/><line x1="50" y1="146.273" x2="330" y2="146.273" stroke="rgb(66,66,66)" stroke-width="1px" opacity="0.25"/><line x1="50" y1="130.909" x2="330" y2="130.909" stroke="rgb(66,66,66)" stroke-width="1px" opacity="0.25"/><line x1="50" y1="115.545" x2="330" y2="115.545" stroke="rgb(66,66,66)" stroke-width="1px" opacity="0.25"/><line x1="50" y1="100.182" x2="330" y2="100.182" stroke="rgb(66,66,66)" stroke-width="1px" opacity="0.25"/><line x1="50" y1="84.818" x2="330" y2="84.818" stroke="rgb(66,66,66)" stroke-width="1px" opacity="0.25"/><line x1="50" y1="69.455" x2="330" y2="69.455" stroke="rgb(66,66,66)" stroke-width="1px" opacity="0.25"/><line x1="50" y1="54.091" x2="330" y2="54.091" stroke="rgb(66,66,66)" stroke-width="1px" opacity="0.25"/><line x1="50" y1="38.727" x2="330" y2="38.727" stroke="rgb(66,66,66)" stroke-width="1px" opacity="0.25"/><line x1="50" y1="23.364" x2="330" y2="23.364" stroke="rgb(66,66,66)" stroke-width="1px" opacity="0.25"/><line x1="50" y1="8.000" x2="330" y2="8.000" stroke="rgb(66,66,66)" stroke-width="1px" opacity="0.25"/><path d="M50.008,71.588L50.800,76.571L51.600,80.893L52.400,84.679L53.200,87.987L54.000,90.891L54.800,99.847L55.600,106.933L56.400,111.612L57.200,115.344L58.000,118.444L58.800,121.100L59.600,123.387L60.400,125.334L61.200,127.016L62.000,128.535L62.800,129.917L63.600,131.115L64.400,132.229L65.200,133.230L66.000,134.088L66.800,134.921L67.600,135.681L68.400,136.406L69.200,137.096L70.000,137.754L70.800,138.350L71.600,138.927L72.400,139.496L73.200,139.989L74.000,140.462L74.800,140.930L75.600,141.364L76.400,141.787L77.200,142.199L78.000,142.576L78.800,142.945L79.600,143.295L80.400,143.631L81.200,143.962L82.000,144.269L82.800,144.592L83.600,144.921L84.400,145.229L85.200,145.526L86.000,145.817L86.800,146.111L87.600,146.368L88.400,146.604L89.200,146.858L90.000,147.102L90.800,147.343L91.600,147.576L92.400,147.802L93.200,148.040L94.000,148.262L94.800,148.438L95.600,148.617L96.400,148.839L97.200,149.070L98.000,149.251L98.800,149.420L99.600,149.623L100.400,149.812L101.200,150.027L102.000,150.188L102.800,150.343L103.600,150.545L104.400,150.715L105.200,150.868L106.000,151.025L106.800,151.214L107.600,151.353L108.400,151.525L109.200,151.677L110.000,151.801L110.800,151.922L111.600,152.055L112.400,152.160L113.200,152.287L114.000,152.380L114.800,152.526L115.600,152.631L116.400,152.778L117.200,152.871L118.000,152.967L118.800,153.071L119.600,153.205L120.400,153.353L121.200,153.502L122.000,153.624L122.800,153.791L123.600,153.908L124.400,154.037L125.200,154.169L126.000,154.278L126.800,154.384L127.600,154.480L128.400,154.619L129.200,154.714L130.000,154.804L130.800,154.896L131.600,155.000L132.400,155.076L133.200,155.192L134.000,155.275L134.800,155.370L135.600,155.461L136.400,155.557L137.200,155.647L138.000,155.725L138.800,155.814L139.600,155.914L140.400,155.977L141.200,156.062L142.000,156.135L142.800,156.210L143.600,156.292L144.400,156.401L145.200,156.486L146.000,156.541L146.800,156.610L147.600,156.689L148.400,156.800L149.200,156.885L150.000,156.936L150.800,157.003L151.600,157.063L152.400,157.110L153.200,157.171L154.000,157.250L154.800,157.332L155.600,157.420L156.400,157.492L157.200,157.530L158.000,157.621L158.800,157.748L159.600,157.757L160.400,157.806L161.200,157.892L162.000,157.979L162.800,158.012L163.600,158.057L164.400,158.121L165.200,158.167L166.000,158.242L166.800,158.260L167.600,158.300L168.400,158.416L169.200,158.518L170.000,158.572L170.800,158.644L171.600,158.709L172.400,158.759L173.200,158.823L174.000,158.886L174.800,158.923L175.600,159.001L176.400,159.084L177.200,159.120L178.000,159.163L178.800,159.219L179.600,159.246L180.400,159.322L181.200,159.395L182.000,159.442L182.800,159.486L183.600,159.540L184.400,159.563L185.200,159.573L186.000,159.613L186.800,159.667L187.600,159.722L188.400,159.785L189.200,159.814L190.000,159.857L190.800,159.900L191.600,159.953L192.400,159.996L193.200,160.044L194.000,160.083L194.800,160.189L195.600,160.235L196.400,160.290L197.200,160.288L198.000,160.335L198.800,160.364L199.600,160.394L200.400,160.410L201.200,160.452L202.000,160.476L202.800,160.532L203.600,160.503L204.400,160.505L205.200,160.547L206.000,160.604L206.800,160.631L207.600,160.686L208.400,160.735L209.200,160.802L210.000,160.853L210.800,160.920L211.600,160.953L212.400,161.022L213.200,161.079L214.000,161.105L214.800,161.120L215.600,161.149L216.400,161.165L217.200,161.186L218.000,161.202L218.800,161.215L219.600,161.220L220.400,161.226L221.200,161.256L222.000,161.306L222.800,161.312L223.600,161.359L224.400,161.405L225.200,161.466L226.000,161.505L226.800,161.528L227.600,161.569L228.400,161.606L229.200,161.637L230.000,161.618L230.800,161.637L231.600,161.677L232.400,161.680L233.200,161.717L234.000,161.698L234.800,161.726L235.600,161.757L236.400,161.785L237.200,161.792L238.000,161.817L238.800,161.868L239.600,161.884L240.400,161.923L241.200,161.954L242.000,161.982L242.800,162.050L243.600,162.019L244.400,162.064L245.200,162.061L246.000,162.112L246.800,162.157L247.600,162.184L248.400,162.199L249.200,162.204L250.000,162.240L250.800,162.210L251.600,162.212L252.400,162.295L253.200,162.305L254.000,162.311L254.800,162.324L255.600,162.329L256.400,162.344L257.200,162.384L258.000,162.429L258.800,162.433L259.600,162.462L260.400,162.471L261.200,162.446L262.000,162.452L262.800,162.484L263.600,162.463L264.400,162.479L265.200,162.500L266.000,162.496L266.800,162.464L267.600,162.497L268.400,162.532L269.200,162.526L270.000,162.550L270.800,162.543L271.600,162.543L272.400,162.589L273.200,162.617L274.000,162.627L274.800,162.620L275.600,162.637L276.400,162.664L277.200,162.644L278.000,162.685L278.800,162.727L279.600,162.743L280.400,162.760L281.200,162.758L282.000,162.718L282.800,162.727L283.600,162.751L284.400,162.754L285.200,162.728L286.000,162.765L286.800,162.751L287.600,162.739L288.400,162.760L289.200,162.781L290.000,162.787L290.800,162.820L291.600,162.830L292.400,162.829L293.200,162.850L294.000,162.867L294.800,162.858L295.600,162.867" stroke="rgb(255, 112, 67)" stroke-width="2px" fill="none" opacity="0.2"/><path d="M50.008,24.151L50.800,46.701L51.600,74.896L52.400,87.188L53.200,95.210L54.000,101.384L54.800,106.465L55.600,111.146L56.400,114.971L57.200,117.760L58.000,119.934L58.800,122.667L59.600,124.638L60.400,126.368L61.200,128.244L62.000,129.303L62.800,130.604L63.600,131.618L64.400,132.564L65.200,133.482L66.000,134.463L66.800,135.133L67.600,135.854L68.400,136.891L69.200,137.369L70.000,137.691L70.800,138.462L71.600,138.964L72.400,139.595L73.200,140.152L74.000,140.716L74.800,141.020L75.600,141.487L76.400,142.113L77.200,142.310L78.000,142.575L78.800,142.839L79.600,143.234L80.400,143.617L81.200,144.130L82.000,144.299L82.800,144.772L83.600,144.867L84.400,145.189L85.200,145.752L86.000,145.690L86.800,146.124L87.600,146.462L88.400,146.614L89.200,146.890L90.000,147.329L90.800,147.538L91.600,147.600L92.400,147.453L93.200,147.988L94.000,148.439L94.800,148.338L95.600,148.681L96.400,148.952L97.200,149.233L98.000,149.329L98.800,149.273L99.600,149.498L100.400,150.050L101.200,149.994L102.000,149.971L102.800,150.298L103.600,150.568L104.400,150.766L105.200,151.318L106.000,151.002L106.800,151.036L107.600,151.498L108.400,151.368L109.200,151.729L110.000,151.723L110.800,152.050L111.600,151.825L112.400,152.461L113.200,152.433L114.000,152.681L114.800,152.343L115.600,152.489L116.400,152.653L117.200,152.771L118.000,152.748L118.800,153.334L119.600,153.199L120.400,153.441L121.200,153.492L122.000,153.481L122.800,153.824L123.600,153.824L124.400,154.112L125.200,154.298L126.000,154.106L126.800,154.591L127.600,154.619L128.400,154.619L129.200,154.889L130.000,154.698L130.800,154.641L131.600,154.884L132.400,155.351L133.200,155.160L134.000,155.284L134.800,155.126L135.600,155.734L136.400,155.447L137.200,155.898L138.000,155.802L138.800,155.740L139.600,155.644L140.400,155.948L141.200,156.337L142.000,156.021L142.800,156.252L143.600,156.236L144.400,156.427L145.200,156.382L146.000,156.692L146.800,156.635L147.600,156.641L148.400,156.838L149.200,156.889L150.000,156.934L150.800,156.788L151.600,157.120L152.400,157.452L153.200,157.362L154.000,156.945L154.800,157.424L155.600,157.295L156.400,157.159L157.200,157.509L158.000,157.757L158.800,157.847L159.600,157.745L160.400,157.920L161.200,157.864L162.000,158.365L162.800,158.348L163.600,157.514L164.400,157.835L165.200,158.111L166.000,158.461L166.800,158.123L167.600,158.337L168.400,158.455L169.200,158.427L170.000,158.680L170.800,158.568L171.600,158.787L172.400,158.793L173.200,158.951L174.000,158.709L174.800,159.255L175.600,158.838L176.400,158.889L177.200,159.154L178.000,159.125L178.800,159.086L179.600,159.424L180.400,159.706L181.200,159.187L182.000,159.418L182.800,159.328L183.600,159.548L184.400,159.677L185.200,159.694L186.000,159.672L186.800,159.604L187.600,159.677L188.400,159.677L189.200,159.818L190.000,159.627L190.800,160.016L191.600,159.931L192.400,160.235L193.200,160.004L194.000,160.162L194.800,160.145L195.600,160.185L196.400,160.156L197.200,160.201L198.000,160.246L198.800,160.799L199.600,160.522L200.400,160.534L201.200,160.218L202.000,160.511L202.800,160.483L203.600,160.477L204.400,160.365L205.200,160.613L206.000,160.466L206.800,160.861L207.600,160.483L208.400,160.539L209.200,160.996L210.000,160.849L210.800,160.804L211.600,161.091L212.400,161.018L213.200,161.103L214.000,161.176L214.800,161.198L215.600,161.221L216.400,161.244L217.200,161.165L218.000,161.283L218.800,161.018L219.600,161.125L220.400,161.266L221.200,161.249L222.000,161.277L222.800,161.317L223.600,161.255L224.400,161.283L225.200,161.582L226.000,161.706L226.800,161.351L227.600,161.542L228.400,161.627L229.200,161.942L230.000,161.677L230.800,161.531L231.600,161.762L232.400,161.666L233.200,161.627L234.000,161.373L234.800,161.914L235.600,161.790L236.400,161.570L237.200,162.038L238.000,161.728L238.800,161.987L239.600,161.869L240.400,162.077L241.200,161.734L242.000,161.903L242.800,161.942L243.600,162.089L244.400,162.212L245.200,161.920L246.000,162.342L246.800,162.472L247.600,161.649L248.400,162.365L249.200,162.049L250.000,162.291L250.800,162.398L251.600,162.241L252.400,162.246L253.200,162.274L254.000,162.308L254.800,162.021L255.600,162.489L256.400,162.562L257.200,162.477L258.000,162.111L258.800,162.438L259.600,162.455L260.400,162.398L261.200,162.691L262.000,162.770L262.800,162.348L263.600,162.348L264.400,162.579L265.200,162.286L266.000,162.545L266.800,162.472L267.600,162.207L268.400,162.624L269.200,162.635L270.000,162.641L270.800,162.427L271.600,162.708L272.400,162.731L273.200,162.517L274.000,162.545L274.800,162.472L275.600,162.472L276.400,162.714L277.200,162.928L278.000,162.742L278.800,162.567L279.600,162.607L280.400,163.007L281.200,162.517L282.000,162.962L282.800,163.007L283.600,162.652L284.400,162.663L285.200,162.691L286.000,162.483L286.800,162.838L287.600,162.838L288.400,162.641L289.200,162.714L290.000,162.928L290.800,162.804L291.600,162.877L292.400,162.883L293.200,162.900L294.000,162.753L294.800,162.843L295.600,162.945" stroke="rgb(255, 112, 67)" stroke-width="2px" fill="none"/><line x1="50.000" y1="177" x2="50.000" y2="182" stroke="rgb(204,204,204)" stroke-width="1px"/><text x="50.000" y="185" dx="0em" dy="0.95em" style="text-anchor:middle; font-family: Roboto, sans-serif; font-size: 12px; font-weight: 200;" fill="rgb(33,33,33)">0</text><line x1="90.000" y1="177" x2="90.000" y2="182" stroke="rgb(204,204,204)" stroke-width="1px"/><text x="90.000" y="185" dx="0em" dy="0.95em" style="text-anchor:middle; font-family: Roboto, sans-serif; font-size: 12px; font-weight: 200;" fill="rgb(33,33,33)">5k</text><line x1="130.000" y1="177" x2="130.000" y2="182" stroke="rgb(204,204,204)" stroke-width="1px"/><text x="130.000" y="185" dx="0em" dy="0.95em" style="text-anchor:middle; font-family: Roboto, sans-serif; font-size: 12px; font-weight: 200;" fill="rgb(33,33,33)">10k</text><line x1="170.000" y1="177" x2="170.000" y2="182" stroke="rgb(204,204,204)" stroke-width="1px"/><text x="170.000" y="185" dx="0em" dy="0.95em" style="text-anchor:middle; font-family: Roboto, sans-serif; font-size: 12px; font-weight: 200;" fill="rgb(33,33,33)">15k</text><line x1="210.000" y1="177" x2="210.000" y2="182" stroke="rgb(204,204,204)" stroke-width="1px"/><text x="210.000" y="185" dx="0em" dy="0.95em" style="text-anchor:middle; font-family: Roboto, sans-serif; font-size: 12px; font-weight: 200;" fill="rgb(33,33,33)">20k</text><line x1="250.000" y1="177" x2="250.000" y2="182" stroke="rgb(204,204,204)" stroke-width="1px"/><text x="250.000" y="185" dx="0em" dy="0.95em" style="text-anchor:middle; font-family: Roboto, sans-serif; font-size: 12px; font-weight: 200;" fill="rgb(33,33,33)">25k</text><line x1="290.000" y1="177" x2="290.000" y2="182" stroke="rgb(204,204,204)" stroke-width="1px"/><text x="290.000" y="185" dx="0em" dy="0.95em" style="text-anchor:middle; font-family: Roboto, sans-serif; font-size: 12px; font-weight: 200;" fill="rgb(33,33,33)">30k</text><line x1="330.000" y1="177" x2="330.000" y2="182" stroke="rgb(204,204,204)" stroke-width="1px"/><text x="330.000" y="185" dx="0em" dy="0.95em" style="text-anchor:middle; font-family: Roboto, sans-serif; font-size: 12px; font-weight: 200;" fill="rgb(33,33,33)">35k</text></g></svg>
