<svg viewBox="0 0 330 200" xmlns="http://www.w3.org/2000/svg"><g><g><g><g><g><line x1="70" y1="177" x2="65" y2="177" style="visibility: inherit;" fill="rgb(0, 0, 0)" stroke="rgb(204, 204, 204)" stroke-width="1px"></line><line x1="70" y1="162.25" x2="65" y2="162.25" style="visibility: inherit;" fill="rgb(0, 0, 0)" stroke="rgb(204, 204, 204)" stroke-width="1px"></line><line x1="70" y1="147.5" x2="65" y2="147.5" style="visibility: inherit;" fill="rgb(0, 0, 0)" stroke="rgb(204, 204, 204)" stroke-width="1px"></line><line x1="70" y1="132.75" x2="65" y2="132.75" style="visibility: inherit;" fill="rgb(0, 0, 0)" stroke="rgb(204, 204, 204)" stroke-width="1px"></line><line x1="70" y1="118" x2="65" y2="118" style="visibility: inherit;" fill="rgb(0, 0, 0)" stroke="rgb(204, 204, 204)" stroke-width="1px"></line><line x1="70" y1="103.24999999999999" x2="65" y2="103.24999999999999" style="visibility: inherit;" fill="rgb(0, 0, 0)" stroke="rgb(204, 204, 204)" stroke-width="1px"></line><line x1="70" y1="88.5" x2="65" y2="88.5" style="visibility: inherit;" fill="rgb(0, 0, 0)" stroke="rgb(204, 204, 204)" stroke-width="1px"></line><line x1="70" y1="73.75" x2="65" y2="73.75" style="visibility: inherit;" fill="rgb(0, 0, 0)" stroke="rgb(204, 204, 204)" stroke-width="1px"></line><line x1="70" y1="59.00000000000001" x2="65" y2="59.00000000000001" style="visibility: inherit;" fill="rgb(0, 0, 0)" stroke="rgb(204, 204, 204)" stroke-width="1px"></line><line x1="70" y1="44.25" x2="65" y2="44.25" style="visibility: inherit;" fill="rgb(0, 0, 0)" stroke="rgb(204, 204, 204)" stroke-width="1px"></line><line x1="70" y1="29.499999999999993" x2="65" y2="29.499999999999993" style="visibility: inherit;" fill="rgb(0, 0, 0)" stroke="rgb(204, 204, 204)" stroke-width="1px"></line><line x1="70" y1="14.750000000000007" x2="65" y2="14.750000000000007" style="visibility: inherit;" fill="rgb(0, 0, 0)" stroke="rgb(204, 204, 204)" stroke-width="1px"></line><line x1="70" y1="0" x2="65" y2="0" style="visibility: inherit;" fill="rgb(0, 0, 0)" stroke="rgb(204, 204, 204)" stroke-width="1px"></line></g><g transform="translate(60, 0)"><text x="0" y="177" dx="0em" dy="0.3em" style="text-anchor: end; visibility: hidden; font-family: Roboto, sans-serif; font-size: 12px; font-weight: 200;" fill="rgb(33, 33, 33)" stroke="none" stroke-width="1px">-5e-6</text><text x="0" y="162.25" dx="0em" dy="0.3em" style="text-anchor: end; visibility: inherit; font-family: Roboto, sans-serif; font-size: 12px; font-weight: 200;" fill="rgb(33, 33, 33)" stroke="none" stroke-width="1px">0</text><text x="0" y="147.5" dx="0em" dy="0.3em" style="text-anchor: end; visibility: hidden; font-family: Roboto, sans-serif; font-size: 12px; font-weight: 200;" fill="rgb(33, 33, 33)" stroke="none" stroke-width="1px">5e-6</text><text x="0" y="132.75" dx="0em" dy="0.3em" style="text-anchor: end; visibility: inherit; font-family: Roboto, sans-serif; font-size: 12px; font-weight: 200;" fill="rgb(33, 33, 33)" stroke="none" stroke-width="1px">1e-5</text><text x="0" y="118" dx="0em" dy="0.3em" style="text-anchor: end; visibility: hidden; font-family: Roboto, sans-serif; font-size: 12px; font-weight: 200;" fill="rgb(33, 33, 33)" stroke="none" stroke-width="1px">1.5e-5</text><text x="0" y="103.24999999999999" dx="0em" dy="0.3em" style="text-anchor: end; visibility: inherit; font-family: Roboto, sans-serif; font-size: 12px; font-weight: 200;" fill="rgb(33, 33, 33)" stroke="none" stroke-width="1px">2e-5</text><text x="0" y="88.5" dx="0em" dy="0.3em" style="text-anchor: end; visibility: hidden; font-family: Roboto, sans-serif; font-size: 12px; font-weight: 200;" fill="rgb(33, 33, 33)" stroke="none" stroke-width="1px">2.5e-5</text><text x="0" y="73.75" dx="0em" dy="0.3em" style="text-anchor: end; visibility: inherit; font-family: Roboto, sans-serif; font-size: 12px; font-weight: 200;" fill="rgb(33, 33, 33)" stroke="none" stroke-width="1px">3e-5</text><text x="0" y="59.00000000000001" dx="0em" dy="0.3em" style="text-anchor: end; visibility: hidden; font-family: Roboto, sans-serif; font-size: 12px; font-weight: 200;" fill="rgb(33, 33, 33)" stroke="none" stroke-width="1px">3.5e-5</text><text x="0" y="44.25" dx="0em" dy="0.3em" style="text-anchor: end; visibility: inherit; font-family: Roboto, sans-serif; font-size: 12px; font-weight: 200;" fill="rgb(33, 33, 33)" stroke="none" stroke-width="1px">4e-5</text><text x="0" y="29.499999999999993" dx="0em" dy="0.3em" style="text-anchor: end; visibility: hidden; font-family: Roboto, sans-serif; font-size: 12px; font-weight: 200;" fill="rgb(33, 33, 33)" stroke="none" stroke-width="1px">4.5e-5</text><text x="0" y="14.750000000000007" dx="0em" dy="0.3em" style="text-anchor: end; visibility: inherit; font-family: Roboto, sans-serif; font-size: 12px; font-weight: 200;" fill="rgb(33, 33, 33)" stroke="none" stroke-width="1px">5e-5</text><text x="0" y="0" dx="0em" dy="0.3em" style="text-anchor: end; visibility: hidden; font-family: Roboto, sans-serif; font-size: 12px; font-weight: 200;" fill="rgb(33, 33, 33)" stroke="none" stroke-width="1px">5.5e-5</text></g><line x1="70" y1="0" x2="70" y2="177" fill="rgb(0, 0, 0)" stroke="rgb(204, 204, 204)" stroke-width="1px"></line></g></g><g transform="translate(70, 0)" clip-path="url(#clip_0)"><clipPath id="clip_0"><rect width="260" height="177"></rect></clipPath><g><g><g><line x1="0" y1="0" x2="0" y2="177" fill="rgb(0, 0, 0)" stroke="rgb(66, 66, 66)" stroke-width="1px" opacity="0.25"></line><line x1="32.5" y1="0" x2="32.5" y2="177" fill="rgb(0, 0, 0)" stroke="rgb(66, 66, 66)" stroke-width="1px" opacity="0.25"></line><line x1="65" y1="0" x2="65" y2="177" fill="rgb(0, 0, 0)" stroke="rgb(66, 66, 66)" stroke-width="1px" opacity="0.25"></line><line x1="97.5" y1="0" x2="97.5" y2="177" fill="rgb(0, 0, 0)" stroke="rgb(66, 66, 66)" stroke-width="1px" opacity="0.25"></line><line x1="130" y1="0" x2="130" y2="177" fill="rgb(0, 0, 0)" stroke="rgb(66, 66, 66)" stroke-width="1px" opacity="0.25"></line><line x1="162.5" y1="0" x2="162.5" y2="177" fill="rgb(0, 0, 0)" stroke="rgb(66, 66, 66)" stroke-width="1px" opacity="0.25"></line><line x1="195" y1="0" x2="195" y2="177" fill="rgb(0, 0, 0)" stroke="rgb(66, 66, 66)" stroke-width="1px" opacity="0.25"></line><line x1="227.5" y1="0" x2="227.5" y2="177" fill="rgb(0, 0, 0)" stroke="rgb(66, 66, 66)" stroke-width="1px" opacity="0.25"></line><line x1="260" y1="0" x2="260" y2="177" fill="rgb(0, 0, 0)" stroke="rgb(66, 66, 66)" stroke-width="1px" opacity="0.25"></line></g><g><line x1="0" y1="177" x2="260" y2="177" fill="rgb(0, 0, 0)" stroke="rgb(66, 66, 66)" stroke-width="1px" opacity="0.25"></line><line x1="0" y1="162.25" x2="260" y2="162.25" fill="rgb(0, 0, 0)" stroke="rgb(66, 66, 66)" stroke-width="1px" opacity="0.25"></line><line x1="0" y1="147.5" x2="260" y2="147.5" fill="rgb(0, 0, 0)" stroke="rgb(66, 66, 66)" stroke-width="1px" opacity="0.25"></line><line x1="0" y1="132.75" x2="260" y2="132.75" fill="rgb(0, 0, 0)" stroke="rgb(66, 66, 66)" stroke-width="1px" opacity="0.25"></line><line x1="0" y1="118" x2="260" y2="118" fill="rgb(0, 0, 0)" stroke="rgb(66, 66, 66)" stroke-width="1px" opacity="0.25"></line><line x1="0" y1="103.24999999999999" x2="260" y2="103.24999999999999" fill="rgb(0, 0, 0)" stroke="rgb(66, 66, 66)" stroke-width="1px" opacity="0.25"></line><line x1="0" y1="88.5" x2="260" y2="88.5" fill="rgb(0, 0, 0)" stroke="rgb(66, 66, 66)" stroke-width="1px" opacity="0.25"></line><line x1="0" y1="73.75" x2="260" y2="73.75" fill="rgb(0, 0, 0)" stroke="rgb(66, 66, 66)" stroke-width="1px" opacity="0.25"></line><line x1="0" y1="59.00000000000001" x2="260" y2="59.00000000000001" fill="rgb(0, 0, 0)" stroke="rgb(66, 66, 66)" stroke-width="1px" opacity="0.25"></line><line x1="0" y1="44.25" x2="260" y2="44.25" fill="rgb(0, 0, 0)" stroke="rgb(66, 66, 66)" stroke-width="1px" opacity="0.25"></line><line x1="0" y1="29.499999999999993" x2="260" y2="29.499999999999993" fill="rgb(0, 0, 0)" stroke="rgb(66, 66, 66)" stroke-width="1px" opacity="0.25"></line><line x1="0" y1="14.750000000000007" x2="260" y2="14.750000000000007" fill="rgb(0, 0, 0)" stroke="rgb(66, 66, 66)" stroke-width="1px" opacity="0.25"></line><line x1="0" y1="0" x2="260" y2="0" fill="rgb(0, 0, 0)" stroke="rgb(66, 66, 66)" stroke-width="1px" opacity="0.25"></line></g></g></g><g><g><line x1="0" y1="162.25" x2="260" y2="162.25" fill="rgb(0, 0, 0)" stroke="rgb(153, 153, 153)" stroke-width="1.5px"></line></g></g><g><g><line x1="32.5" y1="0" x2="32.5" y2="177" fill="rgb(0, 0, 0)" stroke="rgb(153, 153, 153)" stroke-width="1.5px"></line></g></g><g><g><g><g><g><path stroke="rgb(255, 112, 67)" stroke-width="2px" d="M32.5065,162.25L33.15,153.1234375964059L33.800000000000004,142.80408126424018L34.45,131.47293158305325L35.1,119.29587182878099L35.75,106.43655799932162L36.400000000000006,93.0460864935766L37.05,79.25501418525722L37.699999999999996,65.17006633012186L38.35,50.87460022539049L39,36.43136243345454L39.65,27.936754373367418L40.3,23.05051258815438L40.95,20.32142456984533L41.6,18.88384407324152L42.25,18.220198391249262L42.9,18.02057832373299L43.550000000000004,18.09925767903645L44.2,18.344886178105707L44.849999999999994,18.690674861464792L45.5,19.09655824168908L46.15,19.538494798956474L46.8,20.002068486401434L47.449999999999996,20.47862520494163L48.1,20.96297226391815L48.75,21.4519895725979L49.4,21.943813535955904L50.050000000000004,22.43732162260133L50.7,22.931835969867468L51.35,23.426958414426004L52,23.922445746373338L52.650000000000006,24.418152028216966L53.3,24.91398539768082L53.949999999999996,25.409899318837915L54.6,25.905861574796866L55.25,26.40184854109439L55.9,26.897854627773935L56.55,27.393872187501138L57.2,27.889896631547998L57.85,28.385920913666336L58.5,28.881949391619383L59.15,29.377980387179296L59.800000000000004,29.874008600552063L60.45,30.370039437465692L61.099999999999994,30.866071848526765L61.75,31.362105204090035L62.4,31.85813483354789L63.05,32.35416652016244L63.699999999999996,32.85019944107397L64.35,33.346228809750464L65,33.84226033990205L65.65,34.33829316693929L66.3,34.83432677210827L66.95,35.33035655134164L67.60000000000001,35.82638832782869L68.25,36.32242130266804L68.9,36.81845070370385L69.55,37.31448225327255L70.2,37.810515091961015L70.85000000000001,38.30654870412131L71.5,38.80257848754979L72.15,39.29861026655411L72.80000000000001,39.794643242903966L73.44999999999999,40.290676937661104L74.1,40.7867067706477L74.75,41.28273857938689L75.39999999999999,41.778771573577664L76.05,42.27480098622438L76.7,42.77083254275967L77.35,43.26686538562811L78,43.762899000296436L78.64999999999999,44.2589287852297L79.3,44.754960565136926L79.95,45.25099354202854L80.6,45.747022944295736L81.25,46.243054494603335L81.9,46.73908733373513L82.55,47.23512094616147L83.2,47.73115072974955L83.85000000000001,48.22718250884967L84.5,48.72321548525699L85.15,49.21924488723367L85.8,49.7152764373669L86.45,50.21130927639413L87.10000000000001,50.707342888757715L87.75,51.20337267230812L88.4,51.699404451385625L89.05000000000001,52.19543742777938L89.69999999999999,52.69146682974791L90.35,53.18749837987629L91,53.68353121890057L91.64999999999999,54.179564831262425L92.3,54.675594614811786L92.95,55.17162639388866L93.6,55.667659370282024L94.25,56.16368877225033L94.89999999999999,56.659720322378575L95.55,57.155753161402764L96.2,57.651786773764556L96.85,58.1478165573139L97.5,58.643848336390775L98.15,59.13988131278412L98.8,59.63591500756741L99.45,60.131944840569645L100.10000000000001,60.62797664931825L100.75,61.12400964351467L101.4,61.6200390561648L102.05,62.11607061270212L102.7,62.6121034555718L103.35000000000001,63.10813707024085L104,63.604166855174526L104.65,64.10019863508202L105.30000000000001,64.59623161197378L105.94999999999999,65.09226101424109L106.6,65.58829256454872L107.25,66.08432540368057L107.89999999999999,66.58035901610695L108.55,67.07638879969502L109.2,67.57242057879515L109.85,68.06845355520248L110.5,68.56448295717914L111.14999999999999,69.06051450731239L111.8,69.55654734633961L112.45,70.05258095870319L113.1,70.5486107422536L113.75,71.0446425213311L114.4,71.54067335131738L115.05,72.0367057582564L115.7,72.53273696495955L116.35000000000001,73.02876959792872L117,73.52480094025002L117.65,74.02083365459002L118.3,74.5168650457338L118.95,75.0128977893673L119.60000000000001,75.50892919808719L120.25,76.00495980585886L120.9,76.50099207946914L121.55000000000001,76.99702320617507L122.19999999999999,77.49305579114588L122.85,77.98908710466814L123.5,78.48511980172874L124.14999999999999,78.98115118250487L124.8,79.47718177351031L125.45,79.97321403706086L126.1,80.46924515773092L126.75,80.96527773908024L127.39999999999999,81.46130905042956L128.05,81.95734174618643L128.7,82.45337312618032L129.35,82.94940586312393L130,83.44543726782985L130.64999999999998,83.94146787319316L131.3,84.43750014535841L131.95,84.9335312711973L132.6,85.42956385564793L133.25,85.92559516885804L133.9,86.42162786573137L134.54999999999998,86.91765924639515L135.20000000000002,87.41368983733317L135.85,87.90972210084324L136.5,88.40575322148904L137.15,88.9017858028238L137.8,89.3978171141644L138.45,89.89384980991602L139.1,90.38988118990675L139.75,90.88591178044094L140.4,91.38194404370873L141.04999999999998,91.87797516420918L141.70000000000002,92.37400774545671L142.35,92.87003905674497L143,93.36607175246522L143.65,93.8621031324371L144.3,94.35813586936747L144.95,94.85416727406549L145.60000000000002,95.35019787942406L146.25,95.84623015158645L146.89999999999998,96.34226127742365L147.55,96.83829386187324L148.2,97.33432517508275L148.85,97.8303578719557L149.5,98.32638925261926L150.15,98.82241984355714L150.79999999999998,99.31845210706713L151.45000000000002,99.81448322771287L152.1,100.3105158090476L152.75,100.8065471203882L153.4,101.30257981613983L154.05,101.79861119613054L154.7,102.29464393307222L155.35,102.79067533777703L156,103.28670594313965L156.65,103.78273821530449L157.29999999999998,104.27876934114317L157.95000000000002,104.77480192559361L158.6,105.27083323880366L159.25,105.76686593567695L159.9,106.26289731634068L160.55,106.75892790727868L161.2,107.25496017078872L161.85000000000002,107.75099129143453L162.5,108.24702387276925L163.14999999999998,108.74305518410986L163.8,109.23908787986149L164.45,109.73511925985223L165.1,110.23114985038643L165.75,110.72718211365422L166.4,111.22321323415464L167.04999999999998,111.71924581540216L167.70000000000002,112.21527712669045L168.35,112.71130982241067L169,113.20734120238255L169.65,113.70337393931297L170.3,114.19940534401097L170.95,114.69543594936953L171.6,115.19146822153195L172.25,115.68749934736914L172.9,116.1835319318187L173.54999999999998,116.67956324502822L174.20000000000002,117.17559486869743L174.85,117.67162667864247L175.5,118.16765860035301L176.15,118.66369058912285L176.8,119.15972261812827L177.45,119.655754671275L178.10000000000002,120.15178566570283L178.75,120.64781709810303L179.39999999999998,121.14384879328666L180.05,121.63988064614036L180.7,122.13591259359607L181.35,122.631944597813L182,123.12797663608673L182.65,123.62400869479444L183.29999999999998,124.1200396925588L183.95000000000002,124.61607112696096L184.6,125.11210282334575L185.25,125.60813467692016L185.9,126.1041666248083L186.55,126.6001986292847L187.2,127.09623066771405L187.85,127.59226272651519L188.5,128.0882937243356L189.15,128.5843251587714L189.79999999999998,129.08035685517635L190.45000000000002,129.57638870876283L191.1,130.07242065665827L191.75,130.568452661139L192.4,131.06448469957098L193.05,131.56051568516995L193.7,132.05654711227282L194.35000000000002,132.55257880427806L195,133.0486106552247L195.64999999999998,133.5446426015362L196.3,134.0406746050666L196.95,134.53670664292838L197.6,135.03273870138892L198.25,135.52876969900504L198.9,136.02480113331822L199.54999999999998,136.5208328296496L200.20000000000002,137.01686468319195L200.85,137.5128966310609L201.5,138.0089286355258L202.15,138.5049606739482L202.8,139.0009921961433L203.45,139.4970239452039L204.1,139.9930558303837L204.75,140.48908726063328L205.4,140.9851189545265L206.04999999999998,141.48115080660597L206.70000000000002,141.97718275359716L207.35,142.4732142209335L208,142.9692459370788L208.65,143.46527780250952L209.3,143.96130975751146L209.95,144.45734122965425L210.60000000000002,144.95337294868344L211.25,145.44940481584447L211.89999999999998,145.94543677188457L212.55,146.4414682446503L213.2,146.93749996405325L213.85,147.4335318314385L214.5,147.92956378761318L215.15,148.42559526045963L215.79999999999998,148.921626979911L216.45000000000002,149.41765884732533L217.1,149.91369080351745L217.75,150.4097225446753L218.4,150.90575415681258L219.05,151.40178595983843L219.7,151.89781760909656L220.35,152.393849166094L221,152.88988093603595L221.65,153.3859125654437L222.29999999999998,153.8819443788319L222.95000000000002,154.37797603430738L223.6,154.87400786333617L224.25,155.370039528196L224.9,155.86607136285542L225.55,156.36210316524412L226.2,156.8581349482704L226.85000000000002,157.35416671967917L227.5,157.85019848411753L228.14999999999998,158.34623024437354L228.8,158.84226193504497L229.45,159.33829365104089L230.1,159.83432538223147L230.75,160.33035712253883L231.4,160.82638886831631L232.04999999999998,161.32242062576026" style="fill: none;" fill="none"></path></g></g></g></g><g opacity="0.2"><g><g><g><path stroke="rgb(255, 112, 67)" stroke-width="2px" d="M32.5065,162.25L33.15,147.64750015424943L33.800000000000004,132.89749918536108L34.45,118.14749955797744L35.1,103.39750261360315L35.75,88.64749762020075L36.400000000000006,73.89749799281708L37.05,59.14749836543343L37.699999999999996,44.3975041040685L38.35,29.647499110666104L39,14.897504849301198L39.65,15.241069565177908L40.3,15.737104337546043L40.95,16.233139109914198L41.6,16.729163150244858L42.25,17.225197922613013L42.9,17.72123269498117L43.550000000000004,18.217256735311828L44.2,18.713291507679983L44.849999999999994,19.209326280048117L45.5,19.705361052416272L46.15,20.201385092746932L46.8,20.697419865115087L47.449999999999996,21.193454637483242L48.1,21.689489409851376L48.75,22.185513450182057L49.4,22.68154822255019L50.050000000000004,23.177582994918346L50.7,23.673607035249006L51.35,24.16964180761716L52,24.665676579985316L52.650000000000006,25.16171135235345L53.3,25.65773539268413L53.949999999999996,26.153770165052265L54.6,26.64980493742042L55.25,27.14582897775108L55.9,27.641863750119235L56.55,28.13789852248739L57.2,28.633933294855524L57.85,29.129957335186205L58.5,29.62599210755434L59.15,30.122026879922494L59.800000000000004,30.618050920253154L60.45,31.11408569262131L61.099999999999994,31.610120464989464L61.75,32.1061552373576L62.4,32.60217927768828L63.05,33.09821405005641L63.699999999999996,33.59424882242457L64.35,34.09027286275523L65,34.58630763512338L65.65,35.08234240749154L66.3,35.57837717985967L66.95,36.07440122019035L67.60000000000001,36.57043599255849L68.25,37.06647076492664L68.9,37.5624948052573L69.55,38.05852957762546L70.2,38.55456434999361L70.85000000000001,39.050599122361746L71.5,39.54662316269243L72.15,40.04265793506056L72.80000000000001,40.538692707428716L73.44999999999999,41.03472747979687L74.1,41.53075152012753L74.75,42.026786292495686L75.39999999999999,42.52282106486382L76.05,43.0188451051945L76.7,43.514879877562635L77.35,44.01091464993079L78,44.506949422298945L78.64999999999999,45.002973462629605L79.3,45.49900823499776L79.95,45.995043007365894L80.6,46.491067047696575L81.25,46.98710182006471L81.9,47.483136592432864L82.55,47.97917136480102L83.2,48.47519540513168L83.85000000000001,48.971230177499834L84.5,49.46726494986797L85.15,49.96328899019865L85.8,50.45932376256678L86.45,50.95535853493494L87.10000000000001,51.45139330730309L87.75,51.94741734763375L88.4,52.44345212000191L89.05000000000001,52.93948689237004L89.69999999999999,53.43551093270072L90.35,53.93154570506886L91,54.42758047743701L91.64999999999999,54.92361524980517L92.3,55.41963929013583L92.95,55.91567406250398L93.6,56.411708834872115L94.25,56.9077328752028L94.89999999999999,57.40376764757093L95.55,57.899802419939085L96.2,58.39583719230724L96.85,58.8918612326379L97.5,59.387896005006056L98.15,59.88393077737419L98.8,60.379965549742344L99.45,60.875989590073004L100.10000000000001,61.37202436244116L100.75,61.868059134809315L101.4,62.364083175139974L102.05,62.86011794750813L102.7,63.35615271987626L103.35000000000001,63.85218749224442L104,64.34821153257508L104.65,64.84424630494323L105.30000000000001,65.34028107731139L105.94999999999999,65.83630511764204L106.6,66.3323398900102L107.25,66.82837466237834L107.89999999999999,67.32440943474649L108.55,67.82043347507715L109.2,68.3164682474453L109.85,68.81250301981346L110.5,69.30852706014412L111.14999999999999,69.80456183251228L111.8,70.30059660488041L112.45,70.79663137724856L113.1,71.29265541757923L113.75,71.78869018994737L114.4,72.28471959629678L115.05,72.78075436866494L115.7,73.27678377501435L116.35000000000001,73.77281854738249L117,74.26884795373189L117.65,74.76488272610004L118.3,75.26091213244945L118.95,75.75694690481761L119.60000000000001,76.25297631116702L120.25,76.74900571751643L120.9,77.24504048988456L121.55000000000001,77.74106989623397L122.19999999999999,78.23710466860211L122.85,78.73313407495152L123.5,79.22916884731968L124.14999999999999,79.72519825366909L124.8,80.2212276600185L125.45,80.71726243238663L126.1,81.21329183873604L126.75,81.70932661110419L127.39999999999999,82.2053560174536L128.05,82.70139078982176L128.7,83.19742019617117L129.35,83.6934549685393L130,84.1894843748887L130.64999999999998,84.68551378123811L131.3,85.18154855360626L131.95,85.67757795995567L132.6,86.17361273232383L133.25,86.66964213867324L133.9,87.16567691104137L134.54999999999998,87.66170631739078L135.20000000000002,88.15773572374019L135.85,88.65377049610834L136.5,89.14979990245774L137.15,89.6458346748259L137.8,90.14186408117531L138.45,90.63789885354345L139.1,91.13392825989285L139.75,91.62995766624226L140.4,92.12599243861041L141.04999999999998,92.62202184495982L141.70000000000002,93.11805661732798L142.35,93.61408602367739L143,94.11012079604552L143.65,94.60615020239493L144.3,95.10218497476308L144.95,95.59821438111248L145.60000000000002,96.09424378746189L146.25,96.59027855983005L146.89999999999998,97.08630796617946L147.55,97.5823427385476L148.2,98.078372144897L148.85,98.57440691726515L149.5,99.07043632361456L150.15,99.56646572996397L150.79999999999998,100.06250050233213L151.45000000000002,100.55852990868154L152.1,101.05456468104967L152.75,101.55059408739908L153.4,102.04662885976722L154.05,102.54265826611663L154.7,103.0386930384848L155.35,103.5347224448342L156,104.03075185118361L156.65,104.52678662355174L157.29999999999998,105.02281602990115L157.95000000000002,105.5188508022693L158.6,106.0148802086187L159.25,106.51091498098687L159.9,107.00694438733628L160.55,107.50297379368568L161.2,107.99900856605382L161.85000000000002,108.49503797240322L162.5,108.99107274477137L163.14999999999998,109.48710215112078L163.8,109.98313692348894L164.45,110.47916632983835L165.1,110.97519573618776L165.75,111.47123050855589L166.4,111.9672599149053L167.04999999999998,112.46329468727345L167.70000000000002,112.95932409362285L168.35,113.45535886599102L169,113.95138827234042L169.65,114.44742304470856L170.3,114.94345245105796L170.95,115.43948185740737L171.6,115.93551662977552L172.25,116.43154603612493L172.9,116.92758080849309L173.54999999999998,117.4236102148425L174.20000000000002,117.91964230420126L174.85,118.41567439356004L175.5,118.91170648291883L176.15,119.4077385722776L176.8,119.90377066163637L177.45,120.39980275099516L178.10000000000002,120.89583215734457L178.75,121.39186424670334L179.39999999999998,121.88789633606211L180.05,122.3839284254209L180.7,122.87996051477967L181.35,123.37599260413845L182,123.87202469349724L182.65,124.368056782856L183.29999999999998,124.86408618920541L183.95000000000002,125.36011827856419L184.6,125.85615036792298L185.25,126.35218245728174L185.9,126.84821454664052L186.55,127.34424663599931L187.2,127.84027872535808L187.85,128.33631081471685L188.5,128.83234022106626L189.15,129.32837231042504L189.79999999999998,129.82440439978382L190.45000000000002,130.3204364891426L191.1,130.81646857850137L191.75,131.31250066786015L192.4,131.80853275721893L193.05,132.30456216356833L193.7,132.8005942529271L194.35000000000002,133.2966263422859L195,133.79265843164467L195.64999999999998,134.28869052100345L196.3,134.78472261036222L196.95,135.280754699721L197.6,135.77678678907978L198.25,136.2728161954292L198.9,136.76884828478796L199.54999999999998,137.26488037414674L200.20000000000002,137.76091246350552L200.85,138.2569445528643L201.5,138.75297664222308L202.15,139.24900873158185L202.8,139.74503947943595L203.45,140.24107156879472L204.1,140.7371036581535L204.75,141.2331344060076L205.4,141.72916649536637L206.04999999999998,142.22519858472515L206.70000000000002,142.72123067408393L207.35,143.21726142193802L208,143.7132935112968L208.65,144.20932560065557L209.3,144.70535769001435L209.95,145.20138843786845L210.60000000000002,145.69742052722722L211.25,146.193452616586L211.89999999999998,146.68948470594478L212.55,147.18551545379887L213.2,147.68154754315765L213.85,148.17757963251643L214.5,148.6736117218752L215.15,149.1696424697293L215.79999999999998,149.66567455908807L216.45000000000002,150.16170664844685L217.1,150.65773873780563L217.75,151.15377015641207L218.4,151.6498015750185L219.05,152.14583366437728L219.7,152.6418650829837L220.35,153.13789650159015L221,153.63392859094893L221.65,154.12996000955536L222.29999999999998,154.62599209891414L222.95000000000002,155.12202351752057L223.6,155.61805560687935L224.25,156.1140870254858L224.9,156.61011911484457L225.55,157.10615086882717L226.2,157.60218262280978L226.85000000000002,158.09821437679238L227.5,158.594246130775L228.14999999999998,159.0902778847576L228.8,159.58630947105212L229.45,160.08234122503472L230.1,160.57837297901733L230.75,161.07440473299994L231.4,161.57043648698254L232.04999999999998,162.06646826192616" style="fill: none;" fill="none"></path></g></g></g></g></g></g><g transform="translate(70, 177)" clip-path="url(#clip_1)"><clipPath id="clip_1"><rect width="260" height="23"></rect></clipPath><g><g><line x1="0" y1="0" x2="0" y2="5" style="visibility: inherit;" fill="rgb(0, 0, 0)" stroke="rgb(204, 204, 204)" stroke-width="1px"></line><line x1="32.5" y1="0" x2="32.5" y2="5" style="visibility: inherit;" fill="rgb(0, 0, 0)" stroke="rgb(204, 204, 204)" stroke-width="1px"></line><line x1="65" y1="0" x2="65" y2="5" style="visibility: inherit;" fill="rgb(0, 0, 0)" stroke="rgb(204, 204, 204)" stroke-width="1px"></line><line x1="97.5" y1="0" x2="97.5" y2="5" style="visibility: inherit;" fill="rgb(0, 0, 0)" stroke="rgb(204, 204, 204)" stroke-width="1px"></line><line x1="130" y1="0" x2="130" y2="5" style="visibility: inherit;" fill="rgb(0, 0, 0)" stroke="rgb(204, 204, 204)" stroke-width="1px"></line><line x1="162.5" y1="0" x2="162.5" y2="5" style="visibility: inherit;" fill="rgb(0, 0, 0)" stroke="rgb(204, 204, 204)" stroke-width="1px"></line><line x1="195" y1="0" x2="195" y2="5" style="visibility: inherit;" fill="rgb(0, 0, 0)" stroke="rgb(204, 204, 204)" stroke-width="1px"></line><line x1="227.5" y1="0" x2="227.5" y2="5" style="visibility: inherit;" fill="rgb(0, 0, 0)" stroke="rgb(204, 204, 204)" stroke-width="1px"></line><line x1="260" y1="0" x2="260" y2="5" style="visibility: inherit;" fill="rgb(0, 0, 0)" stroke="rgb(204, 204, 204)" stroke-width="1px"></line></g><g transform="translate(0, 8)"><text x="0" y="0" dx="0em" dy="0.95em" style="text-anchor: middle; visibility: hidden; font-family: Roboto, sans-serif; font-size: 12px; font-weight: 200;" fill="rgb(33, 33, 33)" stroke="none" stroke-width="1px">-5k</text><text x="32.5" y="0" dx="0em" dy="0.95em" style="text-anchor: middle; visibility: inherit; font-family: Roboto, sans-serif; font-size: 12px; font-weight: 200;" fill="rgb(33, 33, 33)" stroke="none" stroke-width="1px">0</text><text x="65" y="0" dx="0em" dy="0.95em" style="text-anchor: middle; visibility: inherit; font-family: Roboto, sans-serif; font-size: 12px; font-weight: 200;" fill="rgb(33, 33, 33)" stroke="none" stroke-width="1px">5k</text><text x="97.5" y="0" dx="0em" dy="0.95em" style="text-anchor: middle; visibility: inherit; font-family: Roboto, sans-serif; font-size: 12px; font-weight: 200;" fill="rgb(33, 33, 33)" stroke="none" stroke-width="1px">10k</text><text x="130" y="0" dx="0em" dy="0.95em" style="text-anchor: middle; visibility: inherit; font-family: Roboto, sans-serif; font-size: 12px; font-weight: 200;" fill="rgb(33, 33, 33)" stroke="none" stroke-width="1px">15k</text><text x="162.5" y="0" dx="0em" dy="0.95em" style="text-anchor: middle; visibility: inherit; font-family: Roboto, sans-serif; font-size: 12px; font-weight: 200;" fill="rgb(33, 33, 33)" stroke="none" stroke-width="1px">20k</text><text x="195" y="0" dx="0em" dy="0.95em" style="text-anchor: middle; visibility: inherit; font-family: Roboto, sans-serif; font-size: 12px; font-weight: 200;" fill="rgb(33, 33, 33)" stroke="none" stroke-width="1px">25k</text><text x="227.5" y="0" dx="0em" dy="0.95em" style="text-anchor: middle; visibility: inherit; font-family: Roboto, sans-serif; font-size: 12px; font-weight: 200;" fill="rgb(33, 33, 33)" stroke="none" stroke-width="1px">30k</text><text x="260" y="0" dx="0em" dy="0.95em" style="text-anchor: middle; visibility: hidden; font-family: Roboto, sans-serif; font-size: 12px; font-weight: 200;" fill="rgb(33, 33, 33)" stroke="none" stroke-width="1px">35k</text></g><line x1="0" y1="0" x2="260" y2="0" fill="rgb(0, 0, 0)" stroke="rgb(204, 204, 204)" stroke-width="1px"></line></g></g></g></g></svg>